<?xml version="1.0" encoding="UTF-8" standalone="no"?>
<!-- Created with Inkscape (http://www.inkscape.org/) -->
<svg
   xmlns:dc="http://purl.org/dc/elements/1.1/"
   xmlns:cc="http://web.resource.org/cc/"
   xmlns:rdf="http://www.w3.org/1999/02/22-rdf-syntax-ns#"
   xmlns:svg="http://www.w3.org/2000/svg"
   xmlns="http://www.w3.org/2000/svg"
   xmlns:sodipodi="http://sodipodi.sourceforge.net/DTD/sodipodi-0.dtd"
   xmlns:inkscape="http://www.inkscape.org/namespaces/inkscape"
   width="200"
   height="200"
   id="svg2"
   sodipodi:version="0.32"
   inkscape:version="0.44"
   version="1.0"
   sodipodi:docbase="/home/blackbird/Development/werkzeug/trunk/artwork"
   sodipodi:docname="logo.svg"
   inkscape:export-filename="/home/blackbird/Development/werkzeug/www/static/logo.png"
   inkscape:export-xdpi="72"
   inkscape:export-ydpi="72">
  <defs
     id="defs4" />
  <sodipodi:namedview
     id="base"
     pagecolor="#ffffff"
     bordercolor="#666666"
     borderopacity="1.0"
     gridtolerance="10000"
     guidetolerance="10"
     objecttolerance="10"
     inkscape:pageopacity="0.0"
     inkscape:pageshadow="2"
     inkscape:zoom="2.8"
     inkscape:cx="152.77636"
     inkscape:cy="85.971332"
     inkscape:document-units="px"
     inkscape:current-layer="layer1"
     width="200px"
     height="200px"
     showguides="true"
     inkscape:guide-bbox="true"
     inkscape:window-width="1396"
     inkscape:window-height="975"
     inkscape:window-x="0"
     inkscape:window-y="24" />
  <metadata
     id="metadata7">
    <rdf:RDF>
      <cc:Work
         rdf:about="">
        <dc:format>image/svg+xml</dc:format>
        <dc:type
           rdf:resource="http://purl.org/dc/dcmitype/StillImage" />
      </cc:Work>
    </rdf:RDF>
  </metadata>
  <g
     inkscape:label="Layer 1"
     inkscape:groupmode="layer"
     id="layer1"
     transform="translate(-2.761928,-2.061494)">
    <rect
       style="opacity:1;fill:#ffe000;fill-opacity:1;fill-rule:evenodd;stroke:none;stroke-width:6.47646141;stroke-linecap:butt;stroke-linejoin:round;stroke-miterlimit:4;stroke-dasharray:none;stroke-dashoffset:0;stroke-opacity:1"
       id="rect4120"
       width="135.0585"
       height="138.25838"
       x="78.779762"
       y="-67.54702"
       transform="matrix(0.713806,0.700344,-0.700496,0.713656,0,0)"
       inkscape:export-filename="/home/blackbird/Development/werkzeug/www/static/rect4120.png"
       inkscape:export-xdpi="72"
       inkscape:export-ydpi="72" />
    <path
       style="font-size:16.85234642px;font-style:normal;font-variant:normal;font-weight:normal;font-stretch:normal;text-align:start;line-height:125%;writing-mode:lr-tb;text-anchor:start;fill:black;fill-opacity:1;stroke:none;stroke-width:1px;stroke-linecap:butt;stroke-linejoin:miter;stroke-opacity:1;font-family:Frutiger"
       d="M 98.512969,162.07226 L 101.50664,159.07859 L 108.68768,163.6985 L 103.80027,156.78495 L 106.59475,153.99048 L 113.91826,165.22967 L 110.56033,168.58759 L 103.21185,163.99374 L 107.874,171.27393 L 104.46485,174.68307 L 93.265503,167.31972 L 96.19088,164.39435 L 103.09304,169.29314 L 98.512969,162.07226 M 106.94761,153.63761 L 113.93665,146.64858 L 116.14772,148.85965 L 112.1239,152.88347 L 113.43512,154.19469 L 117.2825,150.3473 L 119.46142,152.52622 L 115.61404,156.37361 L 116.98311,157.74267 L 121.0866,153.63918 L 123.29767,155.85025 L 116.22896,162.91896 L 106.94761,153.63761 M 114.93833,145.64689 L 120.10612,140.47911 C 120.49693,140.08832 120.82,139.8081 121.07532,139.63845 C 121.44645,139.38733 121.83979,139.20395 122.25536,139.08831 C 122.67094,138.9727 123.08121,138.93525 123.48615,138.97592 C 123.8906,139.00855 124.25908,139.11143 124.59157,139.28455 C 124.92357,139.44962 125.25669,139.69927 125.59093,140.03348 C 125.87802,140.3206 126.10666,140.60615 126.27685,140.89015 C 126.44705,141.1742 126.56803,141.44315 126.63979,141.69702 C 126.71156,141.95093 126.74459,142.19644 126.73887,142.43353 C 126.73475,142.76333 126.6824,143.0942 126.58182,143.42615 C 126.50768,143.66315 126.36645,143.98862 126.15817,144.40258 C 126.55071,144.17287 126.91609,144.02603 127.25432,143.96205 C 127.59631,143.89428 127.9242,143.89206 128.23795,143.95538 C 128.5517,144.01873 128.90218,144.15673 129.28941,144.36941 C 129.51821,144.49199 129.97711,144.79152 130.66612,145.26804 C 131.6744,145.9652 132.31815,146.39268 132.59741,146.55051 L 129.34763,149.8003 L 127.04977,148.04881 C 126.58099,147.68629 126.18956,147.50354 125.87545,147.50055 C 125.56513,147.49378 125.24493,147.65545 124.91483,147.98555 L 124.19772,148.70266 L 127.32149,151.82643 L 124.21968,154.92824 L 114.93833,145.64689 M 119.97964,144.75777 L 122.00431,146.78244 L 122.94908,145.83767 C 123.32851,145.45825 123.53675,145.14289 123.5738,144.89156 C 123.63667,144.46878 123.48384,144.07312 123.11533,143.7046 C 122.75111,143.34039 122.37038,143.16834 121.97316,143.18848 C 121.67618,143.20264 121.32661,143.41082 120.92441,143.813 L 119.97964,144.75777 M 130.74157,137.06821 L 129.09852,131.4867 L 132.66134,127.92389 L 134.22379,134.96147 L 142.07667,136.827 L 142.1988,136.94913 L 138.45955,140.68838 L 132.41916,138.74579 L 136.41064,142.73728 L 133.28038,145.86755 L 123.99903,136.5862 L 127.1293,133.45593 L 130.74157,137.06821 M 140.58375,120.00147 L 143.48256,122.90029 L 143.58315,130.71841 L 147.57851,126.72305 L 150.00169,129.14623 L 142.47197,136.67595 L 139.59244,133.79642 L 139.54343,125.7339 L 135.68466,129.59267 L 133.33861,127.24662 L 140.58375,120.00147 M 141.50575,119.07947 L 148.49479,112.09043 L 150.70586,114.30151 L 146.68204,118.32533 L 147.99326,119.63654 L 151.84064,115.78916 L 154.01956,117.96808 L 150.17218,121.81546 L 151.54125,123.18453 L 155.64474,119.08103 L 157.85582,121.29211 L 150.7871,128.36082 L 141.50575,119.07947 M 149.52494,111.06029 L 152.6552,107.93002 L 158.43355,113.70837 C 158.75492,114.02975 159.01954,114.24505 159.22741,114.35426 C 159.50188,114.49973 159.77903,114.55682 160.05888,114.52552 C 160.3382,114.48613 160.59549,114.34882 160.83074,114.11357 C 161.13427,113.81004 161.26619,113.46388 161.22648,113.07507 C 161.19056,112.68252 160.93906,112.25269 160.47199,111.78561 L 154.6358,105.94943 L 157.64655,102.93867 L 163.19351,108.48562 C 163.9391,109.23123 164.46813,109.92342 164.78062,110.56221 C 165.09359,111.20907 165.24504,111.88035 165.23499,112.57602 C 165.22063,113.26739 165.02474,113.95178 164.64732,114.62915 C 164.2699,115.30653 163.79281,115.93358 163.21609,116.5103 C 162.55588,117.17051 161.88874,117.68339 161.21467,118.04895 C 160.76656,118.29138 160.27148,118.4565 159.72946,118.54432 C 159.18315,118.62786 158.69441,118.63239 158.26327,118.55789 C 157.83212,118.48341 157.36062,118.30787 156.84876,118.03126 C 156.33694,117.75468 155.75964,117.295 155.11688,116.65223 L 149.52494,111.06029 M 166.4528,94.260966 L 168.96597,96.774136 C 167.84388,97.184937 166.92237,97.750778 166.20145,98.471674 C 165.72718,98.945972 165.39985,99.487538 165.21951,100.09638 C 165.04295,100.70144 165.04695,101.29737 165.2315,101.8841 C 165.41986,102.46705 165.80754,103.05205 166.39459,103.6391 C 167.2516,104.4961 168.05462,104.96144 168.80367,105.03511 C 169.54843,105.1045 170.23385,104.82617 170.85991,104.20011 C 171.00029,104.05973 171.1162,103.91383 171.20762,103.76241 L 168.72659,101.28139 L 171.42432,98.583658 L 175.75005,102.90939 C 175.17365,104.15425 174.35994,105.30219 173.30894,106.35319 C 172.46282,107.19932 171.53294,107.85922 170.51931,108.33294 C 169.81854,108.65663 169.12106,108.83563 168.42687,108.86993 C 167.73266,108.90422 167.08321,108.84667 166.47846,108.69723 C 165.87323,108.53973 165.27663,108.2922 164.68864,107.95462 C 164.10064,107.61706 163.54098,107.18261 163.00963,106.65127 C 162.17406,105.81569 161.57571,104.91 161.21457,103.9342 C 160.85345,102.95842 160.73685,101.99948 160.86475,101.0574 C 160.97312,100.32344 161.25371,99.575778 161.70653,98.814422 C 162.15507,98.048817 162.71133,97.333995 163.37532,96.669987 C 163.78889,96.256428 164.29557,95.818326 164.89532,95.355673 C 165.49079,94.888763 166.00995,94.523868 166.4528,94.260966"
       id="text2827" />
    <path
       style="fill:black"
       d="M 107.53423,60.03639 C 106.44704,59.921621 105.38025,59.905892 104.28215,59.956576 C 103.24482,60.00446 101.71759,60.056269 100.9108,60.089109 C 98.387523,60.191829 95.871679,61.09708 93.830781,62.630378 L 92.878953,63.33433 L 93.57616,63.2781 C 93.958054,63.240194 95.30775,63.321994 96.543845,63.456872 C 99.801727,63.812355 101.2973,64.633168 103.64399,67.369553 C 105.19614,69.179446 105.31697,69.51104 104.72399,70.177638 C 104.12272,70.853516 103.86859,72.011136 104.1504,72.846669 C 104.27088,73.203874 105.22953,74.501832 106.26473,75.729715 C 107.35325,77.020844 108.0999,78.053474 108.02819,78.191255 C 107.83523,78.561981 102.78053,83.598892 97.608303,88.604132 C 95.025713,91.103348 92.469473,93.576956 91.945392,94.084678 C 91.421316,94.592395 87.867941,97.943649 84.025591,101.54644 C 68.348753,116.24587 67.236647,117.45724 66.419741,120.29951 C 66.129905,121.30794 66.129614,121.6132 66.350749,122.69978 C 66.583154,123.84176 67.484264,125.64606 68.169153,126.32256 C 68.608219,126.75625 69.886133,127.53384 70.723909,127.90305 C 71.198994,128.11239 72.194857,128.31206 73.356728,128.40025 C 74.95433,128.52151 75.374196,128.47858 76.393251,128.10465 C 77.048428,127.86427 77.957393,127.3662 78.411555,127.02961 C 79.17613,126.46296 81.726709,123.82935 81.744179,123.5869 C 81.748416,123.52812 82.813205,122.29109 84.090573,120.84456 C 88.850305,115.45451 102.97505,98.764572 110.60969,89.50045 C 112.19394,87.578076 113.64237,85.836707 113.83455,85.629291 L 114.17402,85.247141 L 114.69229,85.750169 C 115.76067,86.834754 117.04876,87.030894 120.24691,86.581887 L 121.92572,86.370466 L 123.36358,88.060031 L 124.80143,89.749598 L 124.52156,90.747795 C 124.0212,92.438968 124.2693,93.005147 126.55542,95.708935 L 128.53447,98.064395 L 129.94491,98.210381 C 131.11588,98.33158 131.53977,98.274944 132.63741,97.879188 C 136.36112,96.536624 139.67644,93.026504 140.07106,89.949822 C 140.27681,88.345505 140.08068,87.828058 139.03696,86.985993 C 138.62905,86.656897 137.74642,85.795129 137.06017,85.080149 C 135.64007,83.600616 134.87945,83.294266 133.29218,83.502489 L 132.31288,83.625819 L 131.20982,82.580783 C 130.59743,82.01031 130.07563,81.487131 130.08154,81.404741 C 130.08747,81.322355 130.33918,81.027664 130.61369,80.753644 C 130.88816,80.479609 131.23264,80.056341 131.37288,79.837159 C 131.72525,79.286331 131.77731,77.974714 131.48545,77.313003 C 131.35192,77.010265 128.98156,74.087366 126.19962,70.827614 C 121.27993,65.063038 121.09656,64.911919 120.16378,64.649783 C 119.63633,64.501546 118.42015,63.915749 117.44849,63.373672 C 114.0546,61.480314 110.79581,60.380697 107.53423,60.03639 z M 108.09605,60.897011 C 108.31193,60.921622 108.66896,60.988563 109.1235,61.067556 C 111.61992,61.501404 115.30019,62.810051 116.59301,63.702413 C 116.96349,63.958139 116.4139,63.862477 115.22153,63.496262 C 114.7446,63.349782 113.7488,63.195445 112.99467,63.137376 C 111.80952,63.046111 111.39064,62.891987 109.91465,62.112405 C 107.93131,61.064875 107.44841,60.823179 108.09605,60.897011 z M 102.72025,60.950471 C 104.09295,61.062095 105.71416,61.370084 107.02496,61.813312 C 108.31947,62.251028 110.72264,63.366038 110.94886,63.631802 C 111.01921,63.714435 110.80621,64.044683 110.48095,64.353743 C 110.13167,64.685628 109.82371,64.837606 109.72639,64.725024 C 109.42489,64.376305 107.29192,63.131341 106.03412,62.577426 C 104.65915,61.97189 102.14865,61.223795 100.94512,61.055629 C 100.30646,60.966392 100.38954,60.951787 101.44051,60.914308 C 101.82032,60.900767 102.26269,60.913264 102.72025,60.950471 z M 99.502536,61.355697 C 99.964116,61.411973 100.47822,61.51904 101.11021,61.650492 C 103.51756,62.151212 104.95229,62.61044 106.56154,63.434485 C 107.79822,64.067732 109.41347,65.219922 109.39607,65.461209 C 109.38932,65.554985 108.59711,66.338165 107.64147,67.205527 C 106.6858,68.072889 105.85842,68.786412 105.79512,68.779861 C 105.52661,68.752068 105.43946,68.425014 105.49477,67.657413 C 105.54395,66.974977 105.44594,66.743684 104.93987,66.219727 C 104.60677,65.87484 104.06507,65.473984 103.75654,65.326877 C 103.44802,65.179761 102.40679,64.672527 101.41273,64.185514 C 99.147576,63.075769 98.209546,62.737561 96.60813,62.564758 L 95.335289,62.433015 L 96.199947,61.976831 C 97.320096,61.386678 98.117786,61.186873 99.502536,61.355697 z M 113.41658,64.015613 C 113.56687,63.985157 114.59425,64.210969 115.70078,64.540929 C 116.80732,64.870891 118.34289,65.199584 119.11335,65.279331 L 120.48939,65.421756 L 124.19755,69.753725 C 126.2232,72.129989 127.8673,74.129865 127.86209,74.209568 C 127.85685,74.289274 126.80911,74.26201 125.54573,74.130311 L 123.24085,73.891746 L 122.53453,73.112466 C 122.13241,72.679621 121.23202,71.692049 120.544,70.916309 C 119.85599,70.140578 119.31638,69.605276 119.34694,69.733149 C 119.39771,69.945778 120.17585,70.92484 123.92186,75.50298 L 125.2267,77.11458 L 128.04531,77.438418 C 129.57888,77.623351 130.86974,77.833647 130.9235,77.896816 C 131.20562,78.228219 130.87589,79.352817 130.32476,79.953368 C 129.80044,80.524707 129.65693,80.600939 129.21701,80.416487 C 128.39657,80.072495 126.78787,79.999988 126.07272,80.283633 C 125.24712,80.611099 125.36058,80.970103 126.24238,80.814776 C 127.68526,80.560616 128.81139,80.904193 129.56551,81.832808 C 129.76449,82.077861 130.25681,82.57838 130.66166,82.973429 L 131.40697,83.692549 L 130.79001,84.078072 C 130.45062,84.277991 129.45019,84.908001 128.57444,85.485795 L 126.97355,86.539849 L 125.46235,84.425403 C 124.2797,82.813057 123.93183,82.220005 124.04749,81.935745 C 124.23308,81.479691 124.13369,81.475422 123.43056,81.839793 C 122.84825,82.141562 122.89958,81.929698 123.5751,81.276975 C 123.75074,81.10726 123.86217,80.909276 123.81365,80.852282 C 123.76512,80.795285 123.10219,81.319865 122.34348,82.016163 C 121.58474,82.712467 120.34379,83.83087 119.60032,84.492737 L 118.26547,85.702723 L 117.58893,84.990722 C 117.21559,84.604155 115.3636,82.401424 113.50474,80.106255 C 111.64591,77.811085 109.10448,74.721795 107.86574,73.231222 L 105.63443,70.528665 L 107.09088,69.074471 C 110.72007,65.410961 112.05193,64.179427 112.57717,64.121323 C 112.87212,64.088705 113.2663,64.046065 113.41658,64.015613 z M 133.90907,84.079923 L 134.76215,85.227482 C 135.23947,85.852722 135.63599,86.502569 135.62664,86.697209 C 135.62084,86.818069 135.64768,86.902062 135.71149,86.962782 C 135.09914,87.083523 134.34933,87.24026 133.65882,87.552793 C 132.6955,87.988798 131.93446,88.660219 131.50286,89.095075 C 131.4407,89.09851 131.38281,89.086922 131.32856,89.109132 C 130.84903,89.305492 128.80709,86.413571 129.12713,85.992379 C 129.5559,85.428151 131.81641,84.364724 132.85866,84.227991 L 133.90907,84.079923 z M 137.56686,87.186915 C 139.68185,87.434311 140.19903,89.512643 138.7728,92.094462 C 138.73394,92.164805 138.72973,92.239331 138.68794,92.310371 C 137.0095,95.162573 133.58079,97.48755 131.03664,97.48881 C 128.49246,97.490074 127.7899,95.171268 129.46835,92.319069 C 129.867,91.641586 130.3553,91.002415 130.92252,90.415256 C 130.92252,90.415256 131.03136,90.331583 131.03262,90.330356 C 131.23479,90.125468 131.45185,89.91379 131.66564,89.721802 C 131.69631,89.685093 131.71538,89.666977 131.74134,89.633341 C 131.75756,89.612317 131.7661,89.592983 131.78034,89.573178 C 132.63226,88.744248 132.42517,89.0759 134.63347,87.974659 L 136.94305,87.186548 C 137.00051,87.184245 137.06072,87.172519 137.11735,87.17249 C 137.27239,87.17241 137.42585,87.170424 137.56686,87.186915 z "
       id="path4054"
       sodipodi:nodetypes="csscccssssssssssssssssssscccccccccccsssscccsssssssccsssssccsssssssccssssssssscccccscccscccsscccssssssccccccssssscccscccscccscscsscccsssscssssscsc" />
    <path
       style="opacity:1;fill:black;fill-opacity:1;fill-rule:evenodd;stroke:none;stroke-width:6.47645712;stroke-linecap:butt;stroke-linejoin:round;stroke-miterlimit:4;stroke-dasharray:none;stroke-dashoffset:0;stroke-opacity:1"
       d="M 105.35593,3.0334526 C 104.7179,2.4030095 103.85461,2.053202 102.9576,2.0616427 C 102.06058,2.0700844 101.20403,2.4360779 100.57799,3.0784166 L 3.734095,101.74164 C 3.1035166,102.37953 2.7536338,103.24264 2.7620774,104.13946 C 2.770521,105.03628 3.1365923,105.89265 3.7790679,106.51857 L 100.19108,201.11225 C 101.52373,202.40388 103.65054,202.37359 104.94584,201.04453 L 201.78974,102.38131 C 203.09445,101.0615 203.08471,98.934946 201.76795,97.62714 L 105.35593,3.0334526 z M 103.05717,10.198137 L 194.64627,100.05986 L 102.51259,193.92439 L 10.923501,104.06265 L 103.05717,10.198137 z "
       id="rect4126" />
  </g>
</svg>
