<?xml version="1.0" encoding="UTF-8" standalone="no"?>
<!-- Created with Inkscape (http://www.inkscape.org/) -->
<svg
   xmlns:dc="http://purl.org/dc/elements/1.1/"
   xmlns:cc="http://web.resource.org/cc/"
   xmlns:rdf="http://www.w3.org/1999/02/22-rdf-syntax-ns#"
   xmlns:svg="http://www.w3.org/2000/svg"
   xmlns="http://www.w3.org/2000/svg"
   xmlns:sodipodi="http://sodipodi.sourceforge.net/DTD/sodipodi-0.dtd"
   xmlns:inkscape="http://www.inkscape.org/namespaces/inkscape"
   width="200"
   height="200"
   id="svg2"
   sodipodi:version="0.32"
   inkscape:version="0.44"
   version="1.0"
   sodipodi:docbase="/home/blackbird/Development/werkzeug/trunk/artwork"
   sodipodi:docname="logo.svg"
   inkscape:export-filename="/home/blackbird/Development/werkzeug/trunk/artwork/logo.png"
   inkscape:export-xdpi="230.39999"
   inkscape:export-ydpi="230.39999">
  <defs
     id="defs4" />
  <sodipodi:namedview
     id="base"
     pagecolor="#ffffff"
     bordercolor="#666666"
     borderopacity="1.0"
     gridtolerance="10000"
     guidetolerance="10"
     objecttolerance="10"
     inkscape:pageopacity="0.0"
     inkscape:pageshadow="2"
     inkscape:zoom="3.959798"
     inkscape:cx="143.42653"
     inkscape:cy="93.977084"
     inkscape:document-units="px"
     inkscape:current-layer="layer1"
     width="200px"
     height="200px"
     showguides="true"
     inkscape:guide-bbox="true"
     inkscape:window-width="1396"
     inkscape:window-height="975"
     inkscape:window-x="0"
     inkscape:window-y="24" />
  <metadata
     id="metadata7">
    <rdf:RDF>
      <cc:Work
         rdf:about="">
        <dc:format>image/svg+xml</dc:format>
        <dc:type
           rdf:resource="http://purl.org/dc/dcmitype/StillImage" />
      </cc:Work>
    </rdf:RDF>
  </metadata>
  <g
     inkscape:label="Layer 1"
     inkscape:groupmode="layer"
     id="layer1">
    <rect
       style="opacity:1;fill:#ffea00;fill-opacity:1;fill-rule:evenodd;stroke:black;stroke-width:6.47646141;stroke-linecap:butt;stroke-linejoin:round;stroke-miterlimit:4;stroke-dasharray:none;stroke-dashoffset:0;stroke-opacity:1"
       id="rect4120"
       width="129.92883"
       height="133.00769"
       x="75.917381"
       y="-64.999725"
       transform="matrix(0.713728,0.700422,-0.700417,0.713733,0,0)" />
    <path
       transform="scale(0.940891,1.062822)"
       style="font-size:16.85234642px;font-style:normal;font-variant:normal;font-weight:normal;font-stretch:normal;text-align:start;line-height:125%;writing-mode:lr-tb;text-anchor:start;fill:black;fill-opacity:1;stroke:none;stroke-width:1px;stroke-linecap:butt;stroke-linejoin:miter;stroke-opacity:1;font-family:Frutiger"
       d="M 58.294488,110.7331 L 62.622776,110.7331 L 64.47423,118.28703 L 65.938936,110.7331 L 69.97922,110.7331 L 67.148553,122.61532 L 62.293629,122.61532 L 60.302287,114.97087 L 58.409689,122.61532 L 53.480707,122.61532 L 50.70764,110.7331 L 54.937184,110.7331 L 56.385433,118.28703 L 58.294488,110.7331 M 70.489399,110.7331 L 80.594224,110.7331 L 80.594224,113.56377 L 74.776544,113.56377 L 74.776544,115.24242 L 80.339135,115.24242 L 80.339135,118.03194 L 74.776544,118.03194 L 74.776544,119.78465 L 80.709426,119.78465 L 80.709426,122.61532 L 70.489399,122.61532 L 70.489399,110.7331 M 82.042473,110.7331 L 89.514119,110.7331 C 90.079146,110.73311 90.515266,110.76054 90.82248,110.81538 C 91.272304,110.8922 91.689224,111.0266 92.07324,111.21859 C 92.457234,111.4106 92.780895,111.64924 93.044225,111.93449 C 93.313016,112.21427 93.505019,112.51599 93.620232,112.83964 C 93.740907,113.15783 93.801251,113.53086 93.801264,113.95874 C 93.801251,114.3263 93.760108,114.65545 93.677833,114.94618 C 93.595534,115.23694 93.488561,115.48654 93.356915,115.69499 C 93.225244,115.90346 93.071642,116.08175 92.896108,116.22986 C 92.654722,116.43833 92.37769,116.61661 92.065011,116.76472 C 91.840083,116.86896 91.502707,116.9869 91.052883,117.11856 C 91.502707,117.22279 91.872998,117.36268 92.163755,117.53822 C 92.459977,117.71377 92.698608,117.92223 92.879651,118.1636 C 93.06067,118.40498 93.214272,118.71767 93.340457,119.10167 C 93.417246,119.32659 93.532448,119.81208 93.686062,120.55815 C 93.910967,121.64982 94.067312,122.33554 94.155097,122.61532 L 89.456518,122.61532 L 89.061541,120.02328 C 88.984732,119.49116 88.833873,119.12362 88.608963,118.92064 C 88.389525,118.71767 88.041177,118.61618 87.56392,118.61618 L 86.527106,118.61618 L 86.527106,122.61532 L 82.042473,122.61532 L 82.042473,110.7331 M 86.329618,113.39096 L 86.329618,115.983 L 87.695579,115.983 C 88.244151,115.98301 88.622671,115.91443 88.831138,115.77728 C 89.182221,115.54689 89.357766,115.19579 89.357774,114.72401 C 89.357766,114.25773 89.206907,113.90389 88.905196,113.66251 C 88.680271,113.48149 88.277066,113.39097 87.695579,113.39096 L 86.329618,113.39096 M 99.668315,115.35762 L 102.51544,110.7331 L 107.6666,110.7331 L 103.7086,116.23809 L 108.03689,122.45897 L 108.03689,122.61532 L 102.63064,122.61532 L 99.668315,117.50531 L 99.668315,122.61532 L 95.142538,122.61532 L 95.142538,110.7331 L 99.668315,110.7331 L 99.668315,115.35762 M 119.12093,110.7331 L 119.12093,114.44423 L 113.54188,119.5131 L 119.31841,119.5131 L 119.31841,122.61532 L 108.43186,122.61532 L 108.43186,118.92887 L 114.22486,113.73657 L 108.64581,113.73657 L 108.64581,110.7331 L 119.12093,110.7331 M 120.45397,110.7331 L 130.5588,110.7331 L 130.5588,113.56377 L 124.74112,113.56377 L 124.74112,115.24242 L 130.30371,115.24242 L 130.30371,118.03194 L 124.74112,118.03194 L 124.74112,119.78465 L 130.674,119.78465 L 130.674,122.61532 L 120.45397,122.61532 L 120.45397,110.7331 M 132.0482,110.7331 L 136.57397,110.7331 L 136.57397,118.13069 C 136.57397,118.54212 136.60962,118.84933 136.68094,119.0523 C 136.7742,119.3211 136.93329,119.53505 137.15821,119.69414 C 137.38861,119.84774 137.67387,119.92454 138.01399,119.92454 C 138.45285,119.92454 138.79845,119.7874 139.05081,119.5131 C 139.30863,119.23882 139.43755,118.8027 139.43755,118.20474 L 139.43755,110.7331 L 143.79053,110.7331 L 143.79053,117.83445 C 143.79052,118.78898 143.67257,119.57071 143.43669,120.17963 C 143.19531,120.79404 142.81953,121.32067 142.30936,121.75954 C 141.79918,122.19291 141.16282,122.5056 140.40031,122.69761 C 139.63778,122.88961 138.8396,122.98561 138.00576,122.98561 C 137.05123,122.98561 136.19819,122.88686 135.44664,122.68938 C 134.94743,122.55772 134.47017,122.34651 134.01485,122.05577 C 133.55953,121.75954 133.20295,121.44959 132.94512,121.12593 C 132.68729,120.80227 132.47334,120.38809 132.30328,119.88339 C 132.13322,119.37871 132.04819,118.71493 132.0482,117.89205 L 132.0482,110.7331 M 156.42978,110.81538 L 156.42978,114.0328 C 155.32164,113.57749 154.24643,113.34983 153.20414,113.34982 C 152.51841,113.34983 151.89028,113.48697 151.31977,113.76125 C 150.75473,114.03555 150.32683,114.41956 150.03609,114.91327 C 149.75083,115.407 149.6082,116.02963 149.6082,116.78118 C 149.6082,117.87834 149.85231,118.69024 150.34055,119.21687 C 150.82878,119.73802 151.52548,119.9986 152.43064,119.9986 C 152.63361,119.9986 152.82287,119.9794 152.99842,119.941 L 152.99842,116.76472 L 156.89882,116.76472 L 156.89882,122.30263 C 155.58222,122.73052 154.16414,122.94447 152.64459,122.94447 C 151.42125,122.94447 150.27198,122.77166 149.19677,122.42606 C 148.45618,122.18468 147.82257,121.85279 147.29594,121.43039 C 146.7693,121.00798 146.34141,120.55541 146.01227,120.07265 C 145.6886,119.58442 145.43626,119.04407 145.25523,118.4516 C 145.0742,117.85914 144.98368,117.22279 144.98368,116.54255 C 144.98368,115.47283 145.20585,114.51007 145.6502,113.65428 C 146.09455,112.79851 146.70347,112.11004 147.47697,111.58888 C 148.08589,111.18843 148.82922,110.88945 149.70695,110.69195 C 150.58467,110.48899 151.50354,110.3875 152.46356,110.38749 C 153.0615,110.3875 153.74448,110.43139 154.5125,110.51915 C 155.2805,110.60145 155.91959,110.70019 156.42978,110.81538"
       id="text2827" />
    <path
       transform="scale(0.963729,1.037636)"
       style="font-size:6.94758749px;font-style:normal;font-variant:normal;font-weight:300;font-stretch:normal;text-align:start;line-height:100%;writing-mode:lr-tb;text-anchor:start;fill:black;fill-opacity:1;stroke:none;stroke-width:1px;stroke-linecap:butt;stroke-linejoin:miter;stroke-opacity:1;font-family:Frutiger45-Light"
       d="M 60.31312,133.07365 L 62.737828,133.07365 L 62.737828,132.6568 L 60.792503,132.6568 L 60.792503,128.22424 L 60.31312,128.22424 L 60.31312,133.07365 M 63.318277,133.07365 L 63.797661,133.07365 L 63.797661,128.22424 L 63.318277,128.22424 L 63.318277,133.07365 M 68.221537,132.56648 C 68.119635,132.62669 67.97142,132.67069 67.776891,132.69848 C 67.582356,132.72628 67.387823,132.74017 67.193294,132.74017 C 66.568009,132.74017 66.083994,132.54795 65.741248,132.16352 C 65.3985,131.77909 65.227126,131.27423 65.227127,130.64895 C 65.227126,130.34789 65.271127,130.06998 65.359131,129.81524 C 65.447133,129.55586 65.574505,129.33354 65.741248,129.14827 C 65.907989,128.963 66.1141,128.81942 66.359584,128.71752 C 66.605063,128.61099 66.882966,128.55773 67.193294,128.55772 C 67.434141,128.55773 67.656463,128.57625 67.860263,128.6133 C 68.068686,128.65036 68.260903,128.71752 68.436912,128.81478 L 68.492493,128.37014 C 68.344274,128.29603 68.14511,128.24045 67.895,128.2034 C 67.644884,128.16171 67.410982,128.14087 67.193294,128.14087 C 66.822754,128.14087 66.484638,128.20108 66.178946,128.3215 C 65.877883,128.44193 65.620822,128.61562 65.407764,128.84257 C 65.194704,129.0649 65.030278,129.33122 64.914485,129.64155 C 64.803324,129.94724 64.747743,130.28304 64.747743,130.64895 C 64.747743,131.01949 64.803324,131.35992 64.914485,131.67024 C 65.025646,131.98057 65.18544,132.24689 65.393869,132.46921 C 65.606927,132.69154 65.863987,132.86291 66.165051,132.98334 C 66.470743,133.09913 66.81349,133.15703 67.193294,133.15703 C 67.466563,133.15703 67.725939,133.13387 67.971424,133.08755 C 68.216901,133.04123 68.460067,132.96481 68.700921,132.85828 L 68.700921,130.44747 L 67.096028,130.44747 L 67.096028,130.86432 L 68.221537,130.86432 L 68.221537,132.56648 M 69.826646,133.07365 L 70.30603,133.07365 L 70.30603,130.7879 L 72.758528,130.7879 L 72.758528,133.07365 L 73.237912,133.07365 L 73.237912,128.22424 L 72.758528,128.22424 L 72.758528,130.37104 L 70.30603,130.37104 L 70.30603,128.22424 L 69.826646,128.22424 L 69.826646,133.07365 M 75.261722,133.07365 L 75.741106,133.07365 L 75.741106,128.64109 L 77.172309,128.64109 L 77.172309,128.22424 L 73.830519,128.22424 L 73.830519,128.64109 L 75.261722,128.64109 L 75.261722,133.07365 M 83.662985,128.22424 L 83.204444,128.22424 L 81.988616,132.53174 L 81.974721,132.53174 L 80.751945,128.22424 L 80.175296,128.22424 L 78.931678,132.53174 L 78.917782,132.53174 L 77.722797,128.22424 L 77.229519,128.22424 L 78.619036,133.07365 L 79.195686,133.07365 L 80.446252,128.76615 L 80.460147,128.76615 L 81.68987,133.07365 L 82.259572,133.07365 L 83.662985,128.22424 M 84.196429,133.07365 L 86.655875,133.07365 L 86.655875,132.6568 L 84.675812,132.6568 L 84.675812,130.7879 L 86.475237,130.7879 L 86.475237,130.37104 L 84.675812,130.37104 L 84.675812,128.64109 L 86.572504,128.64109 L 86.572504,128.22424 L 84.196429,128.22424 L 84.196429,133.07365 M 87.539847,133.07365 L 88.019231,133.07365 L 88.019231,128.22424 L 87.539847,128.22424 L 87.539847,133.07365 M 92.443107,132.56648 C 92.341205,132.62669 92.19299,132.67069 91.998461,132.69848 C 91.803926,132.72628 91.609394,132.74017 91.414864,132.74017 C 90.789579,132.74017 90.305564,132.54795 89.962818,132.16352 C 89.62007,131.77909 89.448696,131.27423 89.448697,130.64895 C 89.448696,130.34789 89.492697,130.06998 89.580701,129.81524 C 89.668703,129.55586 89.796075,129.33354 89.962818,129.14827 C 90.129559,128.963 90.33567,128.81942 90.581154,128.71752 C 90.826633,128.61099 91.104536,128.55773 91.414864,128.55772 C 91.655711,128.55773 91.878033,128.57625 92.081833,128.6133 C 92.290256,128.65036 92.482473,128.71752 92.658482,128.81478 L 92.714063,128.37014 C 92.565844,128.29603 92.36668,128.24045 92.11657,128.2034 C 91.866454,128.16171 91.632552,128.14087 91.414864,128.14087 C 91.044324,128.14087 90.706208,128.20108 90.400516,128.3215 C 90.099453,128.44193 89.842392,128.61562 89.629334,128.84257 C 89.416274,129.0649 89.251848,129.33122 89.136055,129.64155 C 89.024894,129.94724 88.969313,130.28304 88.969313,130.64895 C 88.969313,131.01949 89.024894,131.35992 89.136055,131.67024 C 89.247216,131.98057 89.40701,132.24689 89.615439,132.46921 C 89.828497,132.69154 90.085558,132.86291 90.386621,132.98334 C 90.692313,133.09913 91.03506,133.15703 91.414864,133.15703 C 91.688133,133.15703 91.947509,133.13387 92.192994,133.08755 C 92.438471,133.04123 92.681637,132.96481 92.922491,132.85828 L 92.922491,130.44747 L 91.317598,130.44747 L 91.317598,130.86432 L 92.443107,130.86432 L 92.443107,132.56648 M 94.048216,133.07365 L 94.5276,133.07365 L 94.5276,130.7879 L 96.980098,130.7879 L 96.980098,133.07365 L 97.459482,133.07365 L 97.459482,128.22424 L 96.980098,128.22424 L 96.980098,130.37104 L 94.5276,130.37104 L 94.5276,128.22424 L 94.048216,128.22424 L 94.048216,133.07365 M 99.483292,133.07365 L 99.962675,133.07365 L 99.962675,128.64109 L 101.39388,128.64109 L 101.39388,128.22424 L 98.052088,128.22424 L 98.052088,128.64109 L 99.483292,128.64109 L 99.483292,133.07365 M 109.77072,128.22424 L 109.31218,128.22424 L 108.09635,132.53174 L 108.08245,132.53174 L 106.85968,128.22424 L 106.28303,128.22424 L 105.03941,132.53174 L 105.02552,132.53174 L 103.83053,128.22424 L 103.33725,128.22424 L 104.72677,133.07365 L 105.30342,133.07365 L 106.55398,128.76615 L 106.56788,128.76615 L 107.7976,133.07365 L 108.3673,133.07365 L 109.77072,128.22424 M 110.12352,132.9486 C 110.26711,133.00881 110.43153,133.05744 110.6168,133.0945 C 110.80207,133.13618 111.00355,133.15703 111.22124,133.15703 C 111.41577,133.15703 111.60567,133.12923 111.79095,133.07365 C 111.98084,133.02271 112.15222,132.94165 112.30507,132.83049 C 112.46254,132.71933 112.58528,132.57574 112.67329,132.39974 C 112.76592,132.22373 112.81224,132.01994 112.81224,131.78835 C 112.81224,131.60308 112.77518,131.43866 112.70108,131.29507 C 112.6316,131.14686 112.53665,131.01949 112.41623,130.91295 C 112.30043,130.8018 112.17769,130.70685 112.04801,130.6281 C 111.91832,130.54473 111.75157,130.44747 111.54778,130.3363 C 111.21893,130.16493 110.97576,130.0144 110.81828,129.88471 C 110.66543,129.75039 110.58901,129.58597 110.58901,129.39143 C 110.58901,129.24322 110.61912,129.11585 110.67933,129.00932 C 110.73954,128.89816 110.81828,128.81016 110.91555,128.74531 C 111.01745,128.68047 111.12861,128.63415 111.24903,128.60636 C 111.37409,128.57394 111.50378,128.55773 111.6381,128.55772 C 111.80947,128.55773 111.97158,128.57394 112.12443,128.60636 C 112.28191,128.63878 112.41391,128.68278 112.52044,128.73836 L 112.59687,128.30066 C 112.44865,128.24509 112.28654,128.20572 112.11053,128.18255 C 111.93916,128.15477 111.784,128.14087 111.64505,128.14087 C 111.20966,128.14087 110.84607,128.25435 110.55427,128.4813 C 110.41532,128.59246 110.30648,128.72678 110.22774,128.88426 C 110.149,129.04174 110.10963,129.21543 110.10963,129.40533 C 110.10963,129.56744 110.14437,129.71566 110.21384,129.84997 C 110.28332,129.97966 110.37364,130.09777 110.4848,130.2043 C 110.60059,130.3062 110.72333,130.39884 110.85302,130.4822 C 110.98734,130.56558 111.14945,130.65821 111.33935,130.76011 C 111.67283,130.94538 111.92063,131.10749 112.08274,131.24644 C 112.24948,131.38076 112.33285,131.5475 112.33286,131.74666 C 112.33285,132.07552 112.23096,132.32332 112.02716,132.49006 C 111.82337,132.6568 111.56167,132.74017 111.24209,132.74017 C 111.02439,132.74017 110.82755,132.71701 110.65154,132.67069 C 110.48017,132.61975 110.32037,132.54795 110.17216,132.45532 L 110.12352,132.9486 M 117.03105,132.56648 C 116.92915,132.62669 116.78094,132.67069 116.58641,132.69848 C 116.39187,132.72628 116.19734,132.74017 116.00281,132.74017 C 115.37752,132.74017 114.89351,132.54795 114.55076,132.16352 C 114.20802,131.77909 114.03664,131.27423 114.03664,130.64895 C 114.03664,130.34789 114.08064,130.06998 114.16865,129.81524 C 114.25665,129.55586 114.38402,129.33354 114.55076,129.14827 C 114.7175,128.963 114.92362,128.81942 115.1691,128.71752 C 115.41458,128.61099 115.69248,128.55773 116.00281,128.55772 C 116.24366,128.55773 116.46598,128.57625 116.66978,128.6133 C 116.8782,128.65036 117.07042,128.71752 117.24643,128.81478 L 117.30201,128.37014 C 117.15379,128.29603 116.95463,128.24045 116.70452,128.2034 C 116.4544,128.16171 116.2205,128.14087 116.00281,128.14087 C 115.63227,128.14087 115.29415,128.20108 114.98846,128.3215 C 114.6874,128.44193 114.43034,128.61562 114.21728,128.84257 C 114.00422,129.0649 113.83979,129.33122 113.724,129.64155 C 113.61284,129.94724 113.55726,130.28304 113.55726,130.64895 C 113.55726,131.01949 113.61284,131.35992 113.724,131.67024 C 113.83516,131.98057 113.99496,132.24689 114.20338,132.46921 C 114.41644,132.69154 114.6735,132.86291 114.97457,132.98334 C 115.28026,133.09913 115.62301,133.15703 116.00281,133.15703 C 116.27608,133.15703 116.53546,133.13387 116.78094,133.08755 C 117.02642,133.04123 117.26958,132.96481 117.51044,132.85828 L 117.51044,130.44747 L 115.90554,130.44747 L 115.90554,130.86432 L 117.03105,130.86432 L 117.03105,132.56648 M 118.55974,133.07365 L 119.03912,133.07365 L 119.03912,128.22424 L 118.55974,128.22424 L 118.55974,133.07365 M 122.9314,133.07365 L 123.41078,133.07365 L 123.41078,128.64109 L 124.84199,128.64109 L 124.84199,128.22424 L 121.5002,128.22424 L 121.5002,128.64109 L 122.9314,128.64109 L 122.9314,133.07365 M 125.21184,130.64895 C 125.2211,131.41318 125.40868,132.02225 125.77459,132.47616 C 126.1405,132.93007 126.66388,133.15703 127.34475,133.15703 C 128.02561,133.15703 128.54899,132.93007 128.9149,132.47616 C 129.28543,132.02225 129.47302,131.41318 129.47765,130.64895 C 129.47765,130.3062 129.43365,129.9843 129.34565,129.68323 C 129.25764,129.38217 129.12332,129.11585 128.94269,128.88426 C 128.76668,128.65268 128.54436,128.47204 128.27572,128.34235 C 128.00708,128.20803 127.69675,128.14087 127.34475,128.14087 C 126.99736,128.14087 126.68704,128.20803 126.41377,128.34235 C 126.14513,128.47204 125.92049,128.65268 125.73985,128.88426 C 125.56385,129.11585 125.43184,129.38217 125.34384,129.68323 C 125.25584,129.9843 125.21184,130.3062 125.21184,130.64895 M 127.34475,128.55772 C 127.61801,128.55773 127.85886,128.61562 128.06729,128.73141 C 128.28035,128.84721 128.45404,129.007 128.58836,129.2108 C 128.72731,129.40996 128.82921,129.6346 128.89406,129.88471 C 128.96353,130.1302 128.99827,130.38494 128.99827,130.64895 C 128.99827,130.91296 128.96353,131.17002 128.89406,131.42013 C 128.82921,131.66561 128.72731,131.89025 128.58836,132.09404 C 128.45404,132.29321 128.28035,132.45069 128.06729,132.56648 C 127.85886,132.68227 127.61801,132.74017 127.34475,132.74017 C 127.07147,132.74017 126.82831,132.68227 126.61525,132.56648 C 126.40682,132.45069 126.23313,132.29321 126.09418,132.09404 C 125.95986,131.89025 125.85796,131.66561 125.78849,131.42013 C 125.72364,131.17002 125.69122,130.91296 125.69122,130.64895 C 125.69122,130.38494 125.72364,130.1302 125.78849,129.88471 C 125.85796,129.6346 125.95986,129.40996 126.09418,129.2108 C 126.23313,129.007 126.40682,128.84721 126.61525,128.73141 C 126.82831,128.61562 127.07147,128.55773 127.34475,128.55772 M 130.13757,130.64895 C 130.14683,131.41318 130.33442,132.02225 130.70033,132.47616 C 131.06623,132.93007 131.58962,133.15703 132.27048,133.15703 C 132.95134,133.15703 133.47473,132.93007 133.84064,132.47616 C 134.21117,132.02225 134.39875,131.41318 134.40339,130.64895 C 134.40339,130.3062 134.35938,129.9843 134.27139,129.68323 C 134.18338,129.38217 134.04906,129.11585 133.86843,128.88426 C 133.69242,128.65268 133.47009,128.47204 133.20146,128.34235 C 132.93281,128.20803 132.62249,128.14087 132.27048,128.14087 C 131.9231,128.14087 131.61277,128.20803 131.3395,128.34235 C 131.07086,128.47204 130.84622,128.65268 130.66559,128.88426 C 130.48958,129.11585 130.35758,129.38217 130.26958,129.68323 C 130.18157,129.9843 130.13757,130.3062 130.13757,130.64895 M 132.27048,128.55772 C 132.54375,128.55773 132.7846,128.61562 132.99303,128.73141 C 133.20609,128.84721 133.37978,129.007 133.5141,129.2108 C 133.65305,129.40996 133.75494,129.6346 133.81979,129.88471 C 133.88926,130.1302 133.924,130.38494 133.92401,130.64895 C 133.924,130.91296 133.88926,131.17002 133.81979,131.42013 C 133.75494,131.66561 133.65305,131.89025 133.5141,132.09404 C 133.37978,132.29321 133.20609,132.45069 132.99303,132.56648 C 132.7846,132.68227 132.54375,132.74017 132.27048,132.74017 C 131.99721,132.74017 131.75404,132.68227 131.54098,132.56648 C 131.33255,132.45069 131.15887,132.29321 131.01991,132.09404 C 130.88559,131.89025 130.7837,131.66561 130.71422,131.42013 C 130.64938,131.17002 130.61695,130.91296 130.61695,130.64895 C 130.61695,130.38494 130.64938,130.1302 130.71422,129.88471 C 130.7837,129.6346 130.88559,129.40996 131.01991,129.2108 C 131.15887,129.007 131.33255,128.84721 131.54098,128.73141 C 131.75404,128.61562 131.99721,128.55773 132.27048,128.55772 M 135.24394,133.07365 L 137.66864,133.07365 L 137.66864,132.6568 L 135.72332,132.6568 L 135.72332,128.22424 L 135.24394,128.22424 L 135.24394,133.07365 M 138.37415,133.07365 L 138.85353,133.07365 L 138.85353,130.64895 L 141.20182,133.07365 L 141.86184,133.07365 L 139.31208,130.50999 L 141.66036,128.22424 L 141.03508,128.22424 L 138.85353,130.39883 L 138.85353,128.22424 L 138.37415,128.22424 L 138.37415,133.07365 M 142.41493,133.07365 L 142.89432,133.07365 L 142.89432,128.22424 L 142.41493,128.22424 L 142.41493,133.07365 M 144.90043,133.07365 L 145.37982,133.07365 L 145.37982,128.64109 L 146.81102,128.64109 L 146.81102,128.22424 L 143.46923,128.22424 L 143.46923,128.64109 L 144.90043,128.64109 L 144.90043,133.07365"
       id="text2853" />
    <path
       style="fill:black"
       d="M 102.58784,40.250287 C 101.55258,40.175241 100.53632,40.201619 99.489926,40.297809 C 98.501436,40.388678 97.046206,40.503168 96.277422,40.569301 C 93.873014,40.776139 91.471998,41.811137 89.520575,43.475503 L 88.610529,44.240222 L 89.275018,44.154321 C 89.639024,44.099936 90.924507,44.130462 92.101517,44.220318 C 95.203677,44.45714 96.624746,45.244728 98.847856,47.975774 C 100.31826,49.782136 100.43185,50.119616 99.863846,50.831439 C 99.287926,51.553172 99.040476,52.758343 99.305126,53.609614 C 99.418266,53.973547 100.32559,55.275143 101.30619,56.501341 C 102.33729,57.790699 103.04387,58.826864 102.97491,58.971962 C 102.78938,59.362373 97.950576,64.763939 92.99996,70.137508 C 90.528023,72.820636 88.081307,75.476276 87.579678,76.021337 C 87.078053,76.566395 83.677328,80.167866 80.000137,84.04055 C 64.997154,99.841149 63.932073,101.13608 63.140731,104.10281 C 62.859967,105.15539 62.858285,105.47052 63.063962,106.58338 C 63.280126,107.75296 64.130314,109.57956 64.779698,110.25056 C 65.196001,110.68072 66.409898,111.43237 67.206351,111.78006 C 67.658002,111.97719 68.605847,112.14351 69.712359,112.18814 C 71.233842,112.2495 71.634049,112.1884 72.606623,111.76169 C 73.231919,111.48736 74.100182,110.9369 74.534413,110.5713 C 75.265432,109.9558 77.70749,107.1352 77.72525,106.88423 C 77.729555,106.82337 78.749674,105.50385 79.973281,103.95955 C 84.532685,98.205219 98.066136,80.411815 105.3823,70.543406 C 106.90046,68.495637 108.2884,66.640146 108.47245,66.418352 L 108.79761,66.010294 L 109.28906,66.50887 C 110.30191,67.585815 111.52818,67.736836 114.57714,67.145565 L 116.17751,66.860247 L 117.53959,68.546961 L 118.90166,70.233675 L 118.63043,71.2753 C 118.14597,73.0411 118.37973,73.61566 120.54529,76.315476 L 122.41989,78.667976 L 123.76296,78.762336 C 124.87799,78.840675 125.28209,78.765274 126.32964,78.312885 C 129.8834,76.77819 133.05807,73.022228 133.44816,69.83038 C 133.65158,68.166013 133.46709,67.639681 132.47661,66.812106 C 132.08951,66.488674 131.25259,65.634321 130.60208,64.923658 C 129.25597,63.453055 128.53272,63.167191 127.01957,63.445549 L 126.08602,63.611985 L 125.03994,62.57725 C 124.45913,62.012812 123.9644,61.493574 123.97043,61.408285 C 123.97647,61.323 124.21763,61.008735 124.48039,60.714894 C 124.74316,60.421045 125.07329,59.970338 125.2079,59.738472 C 125.54615,59.155773 125.60178,57.7997 125.32675,57.128271 C 125.20094,56.821086 122.95614,53.898445 120.32075,50.64451 C 115.66029,44.890223 115.48628,44.741549 114.59883,44.508204 C 114.097,44.376248 112.94104,43.82011 112.01781,43.299337 C 108.79315,41.480386 105.69356,40.475424 102.58784,40.250287 z M 103.11912,41.11627 C 103.32468,41.133051 103.66452,41.187892 104.09719,41.251279 C 106.47354,41.599418 109.97373,42.803326 111.20128,43.672872 C 111.55306,43.922059 111.02992,43.845262 109.89563,43.514849 C 109.44192,43.382689 108.49393,43.263145 107.77573,43.233325 C 106.64707,43.186457 106.24872,43.044088 104.84611,42.298282 C 102.9614,41.296136 102.50245,41.065924 103.11912,41.11627 z M 97.997326,41.386207 C 99.304586,41.4466 100.84771,41.699776 102.09447,42.10496 C 103.32574,42.505106 105.61012,43.560138 105.82442,43.82545 C 105.89107,43.907944 105.68661,44.257369 105.37532,44.589407 C 105.04103,44.945969 104.74694,45.115158 104.65474,45.002829 C 104.3691,44.654887 102.34273,43.454908 101.14699,42.933343 C 99.839826,42.363172 97.451506,41.691196 96.305679,41.565674 C 95.697629,41.499067 95.776849,41.480671 96.778286,41.4 C 97.140196,41.370847 97.561576,41.366076 97.997326,41.386207 z M 94.929937,41.933066 C 95.369428,41.97272 95.858721,42.06271 96.460214,42.173163 C 98.751396,42.593892 100.11616,43.010642 101.64552,43.797023 C 102.82078,44.401326 104.35434,45.526216 104.33666,45.775993 C 104.32979,45.873069 103.57146,46.713198 102.65702,47.646759 C 101.74256,48.58032 100.95103,49.349948 100.89076,49.345713 C 100.63507,49.32775 100.55355,48.993609 100.60978,48.198999 C 100.65977,47.49255 100.56746,47.257701 100.08774,46.737033 C 99.771966,46.394309 99.257726,46.002142 98.964466,45.862607 C 98.671226,45.723065 97.681576,45.241036 96.736776,44.778 C 94.583854,43.722889 93.691745,43.411226 92.166866,43.296814 L 90.954833,43.211662 L 91.780692,42.706197 C 92.850578,42.052231 93.611458,41.814106 94.929937,41.933066 z M 108.17365,44.123084 C 108.31697,44.085641 109.29473,44.277703 110.34741,44.574122 C 111.40009,44.870541 112.86152,45.14851 113.59517,45.200054 L 114.90549,45.292112 L 118.41832,49.615902 C 120.33724,51.988019 121.89438,53.986829 121.88904,54.069317 C 121.88369,54.151805 120.88564,54.165516 119.68261,54.080032 L 117.48783,53.925833 L 116.81852,53.149592 C 116.43739,52.718826 115.58414,51.735317 114.93224,50.962 C 114.28032,50.188691 113.7687,49.657651 113.79723,49.788434 C 113.84463,50.005905 114.58147,50.985513 118.12923,55.561917 L 119.36495,57.173459 L 122.04874,57.395162 C 123.50894,57.524808 124.73778,57.69033 124.78872,57.753394 C 125.05595,58.084231 124.73665,59.258338 124.20883,59.900306 C 123.70668,60.51105 123.5696,60.595478 123.15134,60.422641 C 122.37128,60.100309 120.83899,60.089723 120.15638,60.411102 C 119.36831,60.782128 119.47477,61.148199 120.31557,60.952627 C 121.69137,60.632615 122.76266,60.942307 123.47683,61.870796 C 123.66528,62.115816 124.132,62.612841 124.51589,63.004481 L 125.22265,63.71706 L 124.6331,64.139686 C 124.30883,64.359619 123.35282,65.049947 122.51584,65.681394 L 120.98582,66.833456 L 119.55582,64.711066 C 118.43652,63.093871 118.10782,62.495555 118.21933,62.197492 C 118.39824,61.719289 118.30357,61.718854 117.63203,62.123084 C 117.07586,62.457866 117.12574,62.237108 117.77231,61.536308 C 117.94043,61.354096 118.0475,61.145263 118.00153,61.088366 C 117.95557,61.031468 117.32157,61.599479 116.59554,62.348581 C 115.86949,63.09769 114.68208,64.301797 113.97075,65.01475 L 112.69345,66.317152 L 112.0522,65.609175 C 111.69828,65.225032 109.944,63.025119 108.18363,60.730055 C 106.42327,58.434988 104.01626,55.347416 102.84296,53.858172 L 100.72963,51.157435 L 102.12388,49.598078 C 105.59827,45.67123 106.87279,44.346703 107.37346,44.265742 C 107.65461,44.220285 108.03034,44.160521 108.17365,44.123084 z M 127.60463,64.016994 L 128.41207,65.16755 C 128.86395,65.793922 129.23872,66.448927 129.22892,66.650227 C 129.22284,66.775224 129.24804,66.860858 129.30853,66.920989 C 128.72459,67.070095 128.00952,67.261849 127.35023,67.612062 C 126.43046,68.100635 125.70233,68.824152 125.28916,69.2903 C 125.22991,69.296329 125.17483,69.286677 125.12304,69.311773 C 124.66529,69.533634 122.7332,66.629851 123.04005,66.182267 C 123.45113,65.58268 125.60962,64.394595 126.60321,64.211808 L 127.60463,64.016994 z M 131.07512,67.078248 C 133.08894,67.249147 133.5721,69.373966 132.20145,72.096172 C 132.16411,72.17034 132.15975,72.247442 132.1196,72.322446 C 130.50744,75.333846 127.2302,77.870905 124.80637,77.973841 C 122.38253,78.076778 121.72386,75.711123 123.33603,72.699725 C 123.71896,71.98443 124.1871,71.305103 124.73019,70.676316 C 124.73019,70.676316 124.83426,70.585588 124.83547,70.584274 C 125.02903,70.364691 125.23679,70.137502 125.44135,69.930771 C 125.47074,69.891652 125.48899,69.87219 125.51388,69.836427 C 125.52944,69.814076 125.53764,69.793775 125.55131,69.772765 C 126.36674,68.883018 126.16792,69.23366 128.27686,68.008624 L 130.48081,67.102787 C 130.53556,67.098115 130.59299,67.083603 130.64693,67.081312 C 130.79464,67.075037 130.94086,67.066856 131.07512,67.078248 z "
       id="path4054"
       sodipodi:nodetypes="csscccssssssssssssssssssscccccccccccsssscccsssssssccsssssccsssssssccssssssssscccccscccscccsscccssssssccccccssssscccscccscccscscsscccsssscssssscsc" />
  </g>
</svg>
