<?xml version="1.0" encoding="UTF-8" standalone="no"?>
<!-- Created with Inkscape (http://www.inkscape.org/) -->
<svg
   xmlns:dc="http://purl.org/dc/elements/1.1/"
   xmlns:cc="http://web.resource.org/cc/"
   xmlns:rdf="http://www.w3.org/1999/02/22-rdf-syntax-ns#"
   xmlns:svg="http://www.w3.org/2000/svg"
   xmlns="http://www.w3.org/2000/svg"
   xmlns:sodipodi="http://sodipodi.sourceforge.net/DTD/sodipodi-0.dtd"
   xmlns:inkscape="http://www.inkscape.org/namespaces/inkscape"
   width="200"
   height="200"
   id="svg2"
   sodipodi:version="0.32"
   inkscape:version="0.44"
   version="1.0"
   sodipodi:docbase="/home/blackbird/Development/werkzeug/trunk/artwork"
   sodipodi:docname="logo.svg"
   inkscape:export-filename="/home/blackbird/Development/werkzeug/trunk/artwork/logo.png"
   inkscape:export-xdpi="460.79999"
   inkscape:export-ydpi="460.79999">
  <defs
     id="defs4" />
  <sodipodi:namedview
     id="base"
     pagecolor="#ffffff"
     bordercolor="#666666"
     borderopacity="1.0"
     gridtolerance="10000"
     guidetolerance="10"
     objecttolerance="10"
     inkscape:pageopacity="0.0"
     inkscape:pageshadow="2"
     inkscape:zoom="3.959798"
     inkscape:cx="143.42653"
     inkscape:cy="93.977084"
     inkscape:document-units="px"
     inkscape:current-layer="layer1"
     width="200px"
     height="200px"
     showguides="true"
     inkscape:guide-bbox="true"
     inkscape:window-width="1396"
     inkscape:window-height="975"
     inkscape:window-x="0"
     inkscape:window-y="24" />
  <metadata
     id="metadata7">
    <rdf:RDF>
      <cc:Work
         rdf:about="">
        <dc:format>image/svg+xml</dc:format>
        <dc:type
           rdf:resource="http://purl.org/dc/dcmitype/StillImage" />
      </cc:Work>
    </rdf:RDF>
  </metadata>
  <g
     inkscape:label="Layer 1"
     inkscape:groupmode="layer"
     id="layer1">
    <rect
       style="opacity:1;fill:#ffea00;fill-opacity:1;fill-rule:evenodd;stroke:black;stroke-width:6.47646141;stroke-linecap:butt;stroke-linejoin:round;stroke-miterlimit:4;stroke-dasharray:none;stroke-dashoffset:0;stroke-opacity:1"
       id="rect4120"
       width="129.92883"
       height="133.00769"
       x="75.917381"
       y="-64.999725"
       transform="matrix(0.713728,0.700422,-0.700417,0.713733,0,0)" />
    <text
       xml:space="preserve"
       style="font-size:16.85234642px;font-style:normal;font-variant:normal;font-weight:normal;font-stretch:normal;text-align:start;line-height:125%;writing-mode:lr-tb;text-anchor:start;fill:black;fill-opacity:1;stroke:none;stroke-width:1px;stroke-linecap:butt;stroke-linejoin:miter;stroke-opacity:1;font-family:Frutiger"
       x="50.979187"
       y="122.61532"
       id="text2827"
       sodipodi:linespacing="125%"
       transform="scale(0.940891,1.062822)"><tspan
         sodipodi:role="line"
         id="tspan2829"
         x="50.979187"
         y="122.61532">WERKZEUG</tspan></text>
    <text
       xml:space="preserve"
       style="font-size:6.94758749px;font-style:normal;font-variant:normal;font-weight:300;font-stretch:normal;text-align:start;line-height:100%;writing-mode:lr-tb;text-anchor:start;fill:black;fill-opacity:1;stroke:none;stroke-width:1px;stroke-linecap:butt;stroke-linejoin:miter;stroke-opacity:1;font-family:Frutiger45-Light"
       x="59.757313"
       y="133.07365"
       id="text2853"
       sodipodi:linespacing="100%"
       transform="scale(0.963729,1.037636)"><tspan
         sodipodi:role="line"
         id="tspan2855"
         x="59.757313"
         y="133.07365">LIGHTWEIGHT WSGI TOOLKIT</tspan></text>
    <path
       style="fill:black"
       d="M 102.58784,40.250287 C 101.55258,40.175241 100.53632,40.201619 99.489926,40.297809 C 98.501436,40.388678 97.046206,40.503168 96.277422,40.569301 C 93.873014,40.776139 91.471998,41.811137 89.520575,43.475503 L 88.610529,44.240222 L 89.275018,44.154321 C 89.639024,44.099936 90.924507,44.130462 92.101517,44.220318 C 95.203677,44.45714 96.624746,45.244728 98.847856,47.975774 C 100.31826,49.782136 100.43185,50.119616 99.863846,50.831439 C 99.287926,51.553172 99.040476,52.758343 99.305126,53.609614 C 99.418266,53.973547 100.32559,55.275143 101.30619,56.501341 C 102.33729,57.790699 103.04387,58.826864 102.97491,58.971962 C 102.78938,59.362373 97.950576,64.763939 92.99996,70.137508 C 90.528023,72.820636 88.081307,75.476276 87.579678,76.021337 C 87.078053,76.566395 83.677328,80.167866 80.000137,84.04055 C 64.997154,99.841149 63.932073,101.13608 63.140731,104.10281 C 62.859967,105.15539 62.858285,105.47052 63.063962,106.58338 C 63.280126,107.75296 64.130314,109.57956 64.779698,110.25056 C 65.196001,110.68072 66.409898,111.43237 67.206351,111.78006 C 67.658002,111.97719 68.605847,112.14351 69.712359,112.18814 C 71.233842,112.2495 71.634049,112.1884 72.606623,111.76169 C 73.231919,111.48736 74.100182,110.9369 74.534413,110.5713 C 75.265432,109.9558 77.70749,107.1352 77.72525,106.88423 C 77.729555,106.82337 78.749674,105.50385 79.973281,103.95955 C 84.532685,98.205219 98.066136,80.411815 105.3823,70.543406 C 106.90046,68.495637 108.2884,66.640146 108.47245,66.418352 L 108.79761,66.010294 L 109.28906,66.50887 C 110.30191,67.585815 111.52818,67.736836 114.57714,67.145565 L 116.17751,66.860247 L 117.53959,68.546961 L 118.90166,70.233675 L 118.63043,71.2753 C 118.14597,73.0411 118.37973,73.61566 120.54529,76.315476 L 122.41989,78.667976 L 123.76296,78.762336 C 124.87799,78.840675 125.28209,78.765274 126.32964,78.312885 C 129.8834,76.77819 133.05807,73.022228 133.44816,69.83038 C 133.65158,68.166013 133.46709,67.639681 132.47661,66.812106 C 132.08951,66.488674 131.25259,65.634321 130.60208,64.923658 C 129.25597,63.453055 128.53272,63.167191 127.01957,63.445549 L 126.08602,63.611985 L 125.03994,62.57725 C 124.45913,62.012812 123.9644,61.493574 123.97043,61.408285 C 123.97647,61.323 124.21763,61.008735 124.48039,60.714894 C 124.74316,60.421045 125.07329,59.970338 125.2079,59.738472 C 125.54615,59.155773 125.60178,57.7997 125.32675,57.128271 C 125.20094,56.821086 122.95614,53.898445 120.32075,50.64451 C 115.66029,44.890223 115.48628,44.741549 114.59883,44.508204 C 114.097,44.376248 112.94104,43.82011 112.01781,43.299337 C 108.79315,41.480386 105.69356,40.475424 102.58784,40.250287 z M 103.11912,41.11627 C 103.32468,41.133051 103.66452,41.187892 104.09719,41.251279 C 106.47354,41.599418 109.97373,42.803326 111.20128,43.672872 C 111.55306,43.922059 111.02992,43.845262 109.89563,43.514849 C 109.44192,43.382689 108.49393,43.263145 107.77573,43.233325 C 106.64707,43.186457 106.24872,43.044088 104.84611,42.298282 C 102.9614,41.296136 102.50245,41.065924 103.11912,41.11627 z M 97.997326,41.386207 C 99.304586,41.4466 100.84771,41.699776 102.09447,42.10496 C 103.32574,42.505106 105.61012,43.560138 105.82442,43.82545 C 105.89107,43.907944 105.68661,44.257369 105.37532,44.589407 C 105.04103,44.945969 104.74694,45.115158 104.65474,45.002829 C 104.3691,44.654887 102.34273,43.454908 101.14699,42.933343 C 99.839826,42.363172 97.451506,41.691196 96.305679,41.565674 C 95.697629,41.499067 95.776849,41.480671 96.778286,41.4 C 97.140196,41.370847 97.561576,41.366076 97.997326,41.386207 z M 94.929937,41.933066 C 95.369428,41.97272 95.858721,42.06271 96.460214,42.173163 C 98.751396,42.593892 100.11616,43.010642 101.64552,43.797023 C 102.82078,44.401326 104.35434,45.526216 104.33666,45.775993 C 104.32979,45.873069 103.57146,46.713198 102.65702,47.646759 C 101.74256,48.58032 100.95103,49.349948 100.89076,49.345713 C 100.63507,49.32775 100.55355,48.993609 100.60978,48.198999 C 100.65977,47.49255 100.56746,47.257701 100.08774,46.737033 C 99.771966,46.394309 99.257726,46.002142 98.964466,45.862607 C 98.671226,45.723065 97.681576,45.241036 96.736776,44.778 C 94.583854,43.722889 93.691745,43.411226 92.166866,43.296814 L 90.954833,43.211662 L 91.780692,42.706197 C 92.850578,42.052231 93.611458,41.814106 94.929937,41.933066 z M 108.17365,44.123084 C 108.31697,44.085641 109.29473,44.277703 110.34741,44.574122 C 111.40009,44.870541 112.86152,45.14851 113.59517,45.200054 L 114.90549,45.292112 L 118.41832,49.615902 C 120.33724,51.988019 121.89438,53.986829 121.88904,54.069317 C 121.88369,54.151805 120.88564,54.165516 119.68261,54.080032 L 117.48783,53.925833 L 116.81852,53.149592 C 116.43739,52.718826 115.58414,51.735317 114.93224,50.962 C 114.28032,50.188691 113.7687,49.657651 113.79723,49.788434 C 113.84463,50.005905 114.58147,50.985513 118.12923,55.561917 L 119.36495,57.173459 L 122.04874,57.395162 C 123.50894,57.524808 124.73778,57.69033 124.78872,57.753394 C 125.05595,58.084231 124.73665,59.258338 124.20883,59.900306 C 123.70668,60.51105 123.5696,60.595478 123.15134,60.422641 C 122.37128,60.100309 120.83899,60.089723 120.15638,60.411102 C 119.36831,60.782128 119.47477,61.148199 120.31557,60.952627 C 121.69137,60.632615 122.76266,60.942307 123.47683,61.870796 C 123.66528,62.115816 124.132,62.612841 124.51589,63.004481 L 125.22265,63.71706 L 124.6331,64.139686 C 124.30883,64.359619 123.35282,65.049947 122.51584,65.681394 L 120.98582,66.833456 L 119.55582,64.711066 C 118.43652,63.093871 118.10782,62.495555 118.21933,62.197492 C 118.39824,61.719289 118.30357,61.718854 117.63203,62.123084 C 117.07586,62.457866 117.12574,62.237108 117.77231,61.536308 C 117.94043,61.354096 118.0475,61.145263 118.00153,61.088366 C 117.95557,61.031468 117.32157,61.599479 116.59554,62.348581 C 115.86949,63.09769 114.68208,64.301797 113.97075,65.01475 L 112.69345,66.317152 L 112.0522,65.609175 C 111.69828,65.225032 109.944,63.025119 108.18363,60.730055 C 106.42327,58.434988 104.01626,55.347416 102.84296,53.858172 L 100.72963,51.157435 L 102.12388,49.598078 C 105.59827,45.67123 106.87279,44.346703 107.37346,44.265742 C 107.65461,44.220285 108.03034,44.160521 108.17365,44.123084 z M 127.60463,64.016994 L 128.41207,65.16755 C 128.86395,65.793922 129.23872,66.448927 129.22892,66.650227 C 129.22284,66.775224 129.24804,66.860858 129.30853,66.920989 C 128.72459,67.070095 128.00952,67.261849 127.35023,67.612062 C 126.43046,68.100635 125.70233,68.824152 125.28916,69.2903 C 125.22991,69.296329 125.17483,69.286677 125.12304,69.311773 C 124.66529,69.533634 122.7332,66.629851 123.04005,66.182267 C 123.45113,65.58268 125.60962,64.394595 126.60321,64.211808 L 127.60463,64.016994 z M 131.07512,67.078248 C 133.08894,67.249147 133.5721,69.373966 132.20145,72.096172 C 132.16411,72.17034 132.15975,72.247442 132.1196,72.322446 C 130.50744,75.333846 127.2302,77.870905 124.80637,77.973841 C 122.38253,78.076778 121.72386,75.711123 123.33603,72.699725 C 123.71896,71.98443 124.1871,71.305103 124.73019,70.676316 C 124.73019,70.676316 124.83426,70.585588 124.83547,70.584274 C 125.02903,70.364691 125.23679,70.137502 125.44135,69.930771 C 125.47074,69.891652 125.48899,69.87219 125.51388,69.836427 C 125.52944,69.814076 125.53764,69.793775 125.55131,69.772765 C 126.36674,68.883018 126.16792,69.23366 128.27686,68.008624 L 130.48081,67.102787 C 130.53556,67.098115 130.59299,67.083603 130.64693,67.081312 C 130.79464,67.075037 130.94086,67.066856 131.07512,67.078248 z "
       id="path4054"
       sodipodi:nodetypes="csscccssssssssssssssssssscccccccccccsssscccsssssssccsssssccsssssssccssssssssscccccscccscccsscccssssssccccccssssscccscccscccscscsscccsssscssssscsc" />
  </g>
</svg>
