<?xml version="1.0" encoding="UTF-8" standalone="no"?><!DOCTYPE svg PUBLIC "-//W3C//DTD SVG 1.1//EN" "http://www.w3.org/Graphics/SVG/1.1/DTD/svg11.dtd"><svg width="100%" height="100%" viewBox="0 0 923 272" version="1.1" xmlns="http://www.w3.org/2000/svg" xmlns:xlink="http://www.w3.org/1999/xlink" xml:space="preserve" xmlns:serif="http://www.serif.com/" style="fill-rule:evenodd;clip-rule:evenodd;stroke-linejoin:round;stroke-miterlimit:2;"><g><g><path d="M423.6,78.6l-24.2,90.3l-14.7,-0l-16.6,-54.8l-16.6,54.8l-14.7,-0l-24.1,-90.3l18.4,-0l14,57l13.8,-47.1c1.5,-7 4.7,-10.5 9.6,-10.5c2.5,-0 4.3,0.9 5.6,2.7c1.3,1.8 2.4,4.4 3.4,7.8l13.7,47.1l14.1,-57l18.3,-0Z" style="fill:#2a2123;fill-rule:nonzero;"/><path d="M494.3,136.6l-42.3,-0c-0,6.6 1,11.4 3.1,14.5c2.1,3 6.2,4.6 12.5,4.6c4.1,0 7.1,-1.3 9,-3.9c1.9,-2.6 2.9,-5.1 2.9,-7.4l14.8,0c-0,9.1 -2.4,15.7 -7.3,19.9c-4.9,4.2 -11.3,6.3 -19.3,6.3c-8,-0 -14.2,-1.1 -18.6,-3.4c-9.1,-4.7 -13.6,-17 -13.6,-37.1c-0,-11.9 2.6,-20.7 7.7,-26.2c5.2,-5.5 13,-8.3 23.6,-8.3c18.4,-0 27.5,10.2 27.5,30.6c0.3,2.2 0.2,5.6 0,10.4Zm-41.9,-11.3l27.2,-0c0,-5.6 -1.1,-9.6 -3.2,-12.2c-2.1,-2.5 -5.4,-3.8 -9.7,-3.8c-4.4,-0 -7.8,1.3 -10.4,3.9c-2.6,2.5 -3.9,6.6 -3.9,12.1Z" style="fill:#2a2123;fill-rule:nonzero;"/><path d="M554.3,96.7l-4.6,16.2c-1.3,-0.5 -2.7,-0.8 -4.3,-0.8c-4.2,-0 -9.4,1.8 -15.6,5.5l-0,51.3l-16.5,-0l-0,-72.4l12.3,-0l3.8,6.3l17.5,-7.2c0.8,-0.1 2,-0.1 3.4,-0.1c1.5,-0 2.8,0.4 4,1.2Z" style="fill:#2a2123;fill-rule:nonzero;"/><path d="M634,168.9l-19.8,-0l-19,-25.6l-7.2,10.3l0,15.4l-16.5,-0l0,-95.5l16.5,-0l0,60.3l23.1,-34.4l18.7,-0l-23.7,32.5l27.9,37Z" style="fill:#2a2123;fill-rule:nonzero;"/><path d="M694.8,168.9l-39.5,-0c-4.3,-0 -7.6,-0.9 -10,-2.7c-2.3,-1.8 -3.5,-4.4 -3.5,-7.7c-0,-3.3 1.4,-6.8 4.2,-10.4l30.2,-37.4l-30.2,-0l-0,-14.2l50,-0l-0,12.6l-36,45.7l34.8,0l-0,14.1Z" style="fill:#2a2123;fill-rule:nonzero;"/><path d="M770.3,136.6l-42.3,-0c-0,6.6 1,11.4 3.1,14.5c2.1,3 6.2,4.6 12.5,4.6c4.1,0 7.1,-1.3 9,-3.9c1.9,-2.6 2.9,-5.1 2.9,-7.4l14.8,0c-0,9.1 -2.4,15.7 -7.3,19.9c-4.9,4.2 -11.3,6.3 -19.3,6.3c-8,-0 -14.2,-1.1 -18.6,-3.4c-9.1,-4.7 -13.6,-17 -13.6,-37.1c-0,-11.9 2.6,-20.7 7.7,-26.2c5.2,-5.5 13,-8.3 23.6,-8.3c18.4,-0 27.5,10.2 27.5,30.6c0.3,2.2 0.2,5.6 -0,10.4Zm-41.9,-11.3l27.2,-0c-0,-5.6 -1.1,-9.6 -3.2,-12.2c-2.1,-2.5 -5.4,-3.8 -9.7,-3.8c-4.4,-0 -7.8,1.3 -10.4,3.9c-2.6,2.5 -3.9,6.6 -3.9,12.1Z" style="fill:#2a2123;fill-rule:nonzero;"/><path d="M846,168.9l-12.2,-0l-3.8,-8.6l-20.3,9.4c-5.7,-0 -10.6,-2.1 -14.8,-6.3c-4.2,-4.2 -6.3,-10.3 -6.3,-18.3l0,-48.6l16.5,-0l0,45c0,8 3.2,12.1 9.6,12.1l14.8,-8l0,-49.1l16.5,-0l0,72.4Z" style="fill:#2a2123;fill-rule:nonzero;"/><path d="M906.5,97l16.5,-1l0,69.7c0,8 -2.3,14.2 -6.8,18.5c-4.5,4.3 -11.2,6.4 -20.1,6.4c-6.9,-0 -12.9,-1.4 -18,-4.1c-2.7,-1.4 -4.9,-3.4 -6.5,-6.1c-1.6,-2.7 -2.4,-5.9 -2.4,-9.6l15.4,-0.8c0,2.4 0.8,4.1 2.5,5.1c1.7,1 4.6,1.5 8.7,1.5c4.1,-0 6.9,-1 8.4,-3c1.5,-2 2.2,-4.9 2.2,-8.8l0.6,-10.9l-17.8,9.5c-9.7,0 -16.3,-3.3 -19.7,-9.9c-3,-5.8 -4.6,-13 -4.6,-21.4c0,-10.1 0.8,-17.2 2.3,-21.3c1.6,-4.6 3.9,-7.9 6.9,-9.9c3.8,-2.5 8.8,-3.8 15,-3.8l17.4,0l0,-0.1Zm0,42.5l0,-27.7l-12.6,-0c-4.7,-0 -8,1.6 -9.8,4.8c-1.8,3.2 -2.7,7.7 -2.7,13.5c0,5.8 0.9,9.8 2.7,12.2c1.8,2.4 5.1,3.6 9.7,3.6l12.7,-6.4Z" style="fill:#2a2123;fill-rule:nonzero;"/></g><g><path d="M250.484,271.03l-229.868,-0c-11.399,-0 -20.616,-9.218 -20.616,-20.616l-0,-229.798c-0,-11.399 9.217,-20.616 20.616,-20.616l229.868,-0c11.399,-0 20.616,9.217 20.616,20.616l0,229.868c0,11.328 -9.217,20.546 -20.616,20.546Z" style="fill:url(#_Linear1);fill-rule:nonzero;"/><g><path d="M43.202,207.142l7.528,-6.192l38.347,0.352l-27.582,22.727c-3.94,3.729 -11.257,5.347 -14.283,2.11l-6.262,-5.488c-3.026,-3.236 -1.759,-9.78 2.181,-13.509l0.071,0Z" style="fill:#fff;fill-rule:nonzero;"/><path d="M102.727,190.115l-7.529,6.192l-38.347,-0.352l7.529,-6.192l38.347,0.352Z" style="fill:#fff;fill-rule:nonzero;"/><path d="M153.809,115.251l15.69,19.068l-62.058,51.011l-38.347,-0.352l84.715,-69.727Z" style="fill:#fff;fill-rule:nonzero;"/><path d="M228.743,137.837c2.814,3.447 2.533,8.373 -0.633,10.835l-22.938,18.857c-3.166,2.533 -8.021,1.9 -10.836,-1.548l-10.202,-12.454c-2.744,-3.377 -2.533,-8.302 0.633,-10.906l-28.425,-34.054c-5.911,-14.565 -13.51,-26.245 -36.025,-36.447c-0,-0 30.818,-17.098 61.495,20.193l25.893,31.522c3.166,-2.533 8.021,-1.829 10.836,1.548l10.202,12.454Z" style="fill:#fff;fill-rule:nonzero;"/><path d="M207.142,95.62c2.815,3.378 1.055,9.921 -3.096,13.369l-15.62,-19.138c4.151,-3.378 10.836,-3.87 13.65,-0.422l5.066,6.191Z" style="fill:#fff;fill-rule:nonzero;"/></g><g><path d="M271.1,159.034l0,15.858l-67.054,-65.903c4.151,-3.448 5.911,-9.991 3.096,-13.369l-2.451,-2.995l66.409,66.409Z" style="fill:#af411e;"/><path d="M271.1,177.942l0,72.542c0,11.328 -9.217,20.546 -20.616,20.546l-159.156,-0l-50.378,-50.379l6.262,5.488c3.026,3.237 10.343,1.619 14.283,-2.11l27.582,-22.727l-27.127,-0.249l-5.099,-5.098l38.347,0.352l7.529,-6.192l-28.76,-0.264l-4.873,-4.873l38.347,0.352l62.058,-51.011l-15.69,-19.068l29.328,29.329c-1.49,2.687 -1.158,6.295 0.997,8.947l10.202,12.454c0.636,0.778 1.375,1.413 2.176,1.901c2.745,1.671 6.209,1.608 8.66,-0.353l22.938,-18.857c2.586,-2.011 3.247,-5.666 1.869,-8.816c-0.309,-0.707 -0.721,-1.388 -1.236,-2.019l-10.202,-12.454l52.559,52.559Z" style="fill:#af411e;"/><path d="M176.254,86.131l36.188,36.187c-1.694,-0.065 -3.372,0.425 -4.737,1.517l-25.893,-31.522c-1.854,-2.254 -3.709,-4.31 -5.558,-6.182Z" style="fill:#af411e;"/><path d="M156.049,107.852l-35.732,-35.732c22.146,10.035 29.861,21.499 35.732,35.732Z" style="fill:#af411e;"/></g></g></g><defs><linearGradient id="_Linear1" x1="0" y1="0" x2="1" y2="0" gradientUnits="userSpaceOnUse" gradientTransform="matrix(-2.71612e-14,168.9,-168.9,-2.71612e-14,135.55,0)"><stop offset="0" style="stop-color:#f7e37f;stop-opacity:1"/><stop offset="1" style="stop-color:#e86e11;stop-opacity:1"/></linearGradient></defs></svg>
