<?xml version="1.0" encoding="UTF-8" standalone="no"?>
<!DOCTYPE svg PUBLIC "-//W3C//DTD SVG 1.1//EN" "http://www.w3.org/Graphics/SVG/1.1/DTD/svg11.dtd">
<svg width="100%" height="100%" viewBox="0 0 500 500" version="1.1" xmlns="http://www.w3.org/2000/svg" xmlns:xlink="http://www.w3.org/1999/xlink" xml:space="preserve" xmlns:serif="http://www.serif.com/" style="fill-rule:evenodd;clip-rule:evenodd;stroke-linejoin:round;stroke-miterlimit:2;">
    <rect id="Icon" x="0" y="0" width="500" height="500" style="fill:none;"/>
    <clipPath id="_clip1">
        <rect x="0" y="0" width="500" height="500"/>
    </clipPath>
    <g clip-path="url(#_clip1)">
        <g>
            <path d="M58.156,448.634l71.615,-59.593l-100.104,-0.784l-19.603,16.205c-10.193,9.671 -13.591,26.921 -5.75,35.285l16.466,14.375c7.842,8.364 26.921,4.182 37.376,-5.488Z" style="fill:#f89e0c;fill-rule:nonzero;"/>
            <path d="M165.579,359.768l-100.104,-1.045l-19.865,16.205l100.366,1.045l19.603,-16.205Z" style="fill:#f89e0c;fill-rule:nonzero;"/>
            <path d="M299.138,164.003l-221.379,182.174l100.104,1.045l162.31,-133.298l-41.035,-49.921Z" style="fill:#f89e0c;fill-rule:nonzero;"/>
            <path d="M494.903,223.072l-26.659,-32.409c-7.319,-8.887 -20.126,-10.717 -28.228,-3.921l-67.695,-82.331c-80.24,-97.491 -160.741,-52.797 -160.741,-52.797c58.808,26.66 78.672,57.24 94.092,95.139l7.319,7.841l66.91,81.024c-8.102,6.796 -8.886,19.603 -1.568,28.489l26.66,32.41c7.318,8.886 20.125,10.716 28.227,3.92l59.854,-49.137c8.625,-6.273 9.148,-19.341 1.829,-28.228Z" style="fill:#f89e0c;fill-rule:nonzero;"/>
            <path d="M438.448,112.775l-13.33,-16.205c-7.318,-8.887 -24.83,-7.841 -35.546,1.307l40.773,49.921c10.978,-9.148 15.421,-26.137 8.103,-35.023Z" style="fill:#f89e0c;fill-rule:nonzero;"/>
        </g>
    </g>
</svg>
