<?xml version="1.0" encoding="UTF-8" standalone="no"?><!DOCTYPE svg PUBLIC "-//W3C//DTD SVG 1.1//EN" "http://www.w3.org/Graphics/SVG/1.1/DTD/svg11.dtd"><svg width="100%" height="100%" viewBox="0 0 386 487" version="1.1" xmlns="http://www.w3.org/2000/svg" xmlns:xlink="http://www.w3.org/1999/xlink" xml:space="preserve" xmlns:serif="http://www.serif.com/" style="fill-rule:evenodd;clip-rule:evenodd;stroke-linejoin:round;stroke-miterlimit:2;"><g><g><g><g><g><path d="M70.036,416.031l-15.267,57.097l-9.311,-0l-10.474,-34.573l-10.475,34.573l-9.311,-0l-15.198,-57.097l11.638,0l8.832,35.942l8.763,-29.712c0.958,-4.45 3.012,-6.641 6.093,-6.641c1.575,0 2.738,0.548 3.492,1.712c0.821,1.164 1.506,2.807 2.19,4.929l8.626,29.712l8.9,-35.942l11.502,0Z" style="fill:#2a2123;fill-rule:nonzero;"/><path d="M114.673,452.658l-26.7,0c-0,4.176 0.684,7.188 1.985,9.105c1.301,1.917 3.971,2.876 7.873,2.876c2.533,-0 4.45,-0.822 5.682,-2.465c1.233,-1.643 1.849,-3.218 1.849,-4.655l9.379,-0c0,5.682 -1.506,9.927 -4.587,12.597c-3.081,2.67 -7.12,4.039 -12.186,4.039c-5.066,-0 -8.968,-0.753 -11.707,-2.191c-5.682,-2.944 -8.557,-10.748 -8.557,-23.414c-0,-7.53 1.643,-13.076 4.86,-16.567c3.286,-3.492 8.216,-5.272 14.925,-5.272c11.57,0 17.389,6.436 17.389,19.306c0,1.506 -0.068,3.629 -0.205,6.641Zm-26.426,-7.12l17.115,0c-0,-3.491 -0.685,-6.093 -1.985,-7.668c-1.37,-1.574 -3.355,-2.396 -6.162,-2.396c-2.738,0 -4.929,0.822 -6.572,2.465c-1.575,1.574 -2.396,4.108 -2.396,7.599Z" style="fill:#2a2123;fill-rule:nonzero;"/><path d="M152.6,427.533l-2.875,10.269c-0.822,-0.342 -1.712,-0.479 -2.739,-0.479c-2.67,-0 -5.956,1.164 -9.858,3.423l-0,32.382l-10.406,-0l-0,-45.732l7.736,-0l2.396,4.039l11.022,-4.587c0.548,-0.068 1.233,-0.068 2.191,-0.068c0.959,-0.069 1.78,0.205 2.533,0.753Z" style="fill:#2a2123;fill-rule:nonzero;"/><path d="M202.851,473.128l-12.529,-0l-12.049,-16.157l-4.587,6.504l0,9.721l-10.406,0l0,-60.246l10.406,0l0,38.065l14.582,-21.702l11.776,-0l-14.993,20.538l17.8,23.277Z" style="fill:#2a2123;fill-rule:nonzero;"/><path d="M241.326,473.128l-24.988,-0c-2.739,-0 -4.793,-0.548 -6.299,-1.712c-1.438,-1.163 -2.191,-2.738 -2.191,-4.86c0,-2.123 0.89,-4.245 2.67,-6.573l19.033,-23.619l-19.033,0l0,-8.968l31.561,-0l0,7.941l-22.729,28.823l21.976,-0l-0,8.968Z" style="fill:#2a2123;fill-rule:nonzero;"/><path d="M288.907,452.658l-26.7,0c-0,4.176 0.684,7.188 1.985,9.105c1.301,1.917 3.971,2.876 7.873,2.876c2.533,-0 4.45,-0.822 5.682,-2.465c1.233,-1.643 1.849,-3.218 1.849,-4.655l9.379,-0c0,5.682 -1.506,9.927 -4.587,12.597c-3.081,2.67 -7.12,4.039 -12.186,4.039c-5.066,-0 -8.968,-0.753 -11.707,-2.191c-5.682,-2.944 -8.558,-10.748 -8.558,-23.414c0,-7.53 1.644,-13.076 4.861,-16.567c3.286,-3.492 8.216,-5.272 14.925,-5.272c11.57,0 17.389,6.436 17.389,19.306c-0.069,1.506 -0.069,3.629 -0.205,6.641Zm-26.427,-7.12l17.116,0c-0,-3.491 -0.685,-6.093 -1.986,-7.668c-1.369,-1.574 -3.354,-2.396 -6.161,-2.396c-2.739,0 -4.929,0.822 -6.572,2.465c-1.575,1.574 -2.397,4.108 -2.397,7.599Z" style="fill:#2a2123;fill-rule:nonzero;"/><path d="M336.761,473.128l-7.805,-0l-2.396,-5.477l-12.802,5.956c-3.56,0 -6.709,-1.301 -9.311,-3.971c-2.67,-2.67 -3.971,-6.503 -3.971,-11.57l0,-30.67l10.407,-0l-0,28.411c-0,5.066 2.053,7.599 6.093,7.599l9.379,-5.066l-0,-31.013l10.406,0l-0,45.801Z" style="fill:#2a2123;fill-rule:nonzero;"/><path d="M374.894,427.67l10.406,-0.617l0,43.953c0,5.066 -1.438,8.968 -4.313,11.638c-2.875,2.67 -7.12,4.039 -12.665,4.039c-4.313,0 -8.147,-0.821 -11.365,-2.533c-1.711,-0.821 -3.081,-2.122 -4.108,-3.834c-1.027,-1.711 -1.506,-3.765 -1.506,-6.093l9.722,-0.479c-0,1.506 0.547,2.533 1.574,3.218c1.096,0.616 2.876,0.958 5.477,0.958c2.602,0 4.382,-0.616 5.272,-1.917c0.958,-1.3 1.369,-3.149 1.369,-5.545l0.411,-6.915l-11.228,6.025c-6.161,-0 -10.269,-2.054 -12.391,-6.23c-1.917,-3.697 -2.876,-8.215 -2.876,-13.555c0,-6.367 0.479,-10.817 1.438,-13.487c1.027,-2.876 2.465,-4.998 4.313,-6.23c2.396,-1.575 5.545,-2.396 9.448,-2.396l11.022,-0Zm-0,26.836l-0,-17.457l-7.942,-0c-3.012,-0 -5.066,1.027 -6.161,3.012c-1.096,2.054 -1.712,4.861 -1.712,8.489c0,3.629 0.548,6.23 1.712,7.736c1.164,1.507 3.218,2.26 6.161,2.26l7.942,-4.04Z" style="fill:#2a2123;fill-rule:nonzero;"/></g></g></g></g><g><path d="M356,385.2l-326.7,0c-16.2,0 -29.3,-13.1 -29.3,-29.3l0,-326.6c0,-16.2 13.1,-29.3 29.3,-29.3l326.7,0c16.2,0 29.3,13.1 29.3,29.3l0,326.7c0,16.1 -13.1,29.2 -29.3,29.2Z" style="fill:url(#_Linear1);fill-rule:nonzero;"/><g><path d="M61.4,294.4l10.7,-8.8l54.5,0.5l-39.2,32.3c-5.6,5.3 -16,7.6 -20.3,3l-8.9,-7.8c-4.3,-4.6 -2.5,-13.9 3.1,-19.2l0.1,0Z" style="fill:#fff;fill-rule:nonzero;"/><path d="M146,270.2l-10.7,8.8l-54.5,-0.5l10.7,-8.8l54.5,0.5Z" style="fill:#fff;fill-rule:nonzero;"/><path d="M218.6,163.8l22.3,27.1l-88.2,72.5l-54.5,-0.5l120.4,-99.1Z" style="fill:#fff;fill-rule:nonzero;"/><path d="M325.1,195.9c4,4.9 3.6,11.9 -0.9,15.4l-32.6,26.8c-4.5,3.6 -11.4,2.7 -15.4,-2.2l-14.5,-17.7c-3.9,-4.8 -3.6,-11.8 0.9,-15.5l-40.4,-48.4c-8.4,-20.7 -19.2,-37.3 -51.2,-51.8c0,0 43.8,-24.3 87.4,28.7l36.8,44.8c4.5,-3.6 11.4,-2.6 15.4,2.2l14.5,17.7Z" style="fill:#fff;fill-rule:nonzero;"/><path d="M294.4,135.9c4,4.8 1.5,14.1 -4.4,19l-22.2,-27.2c5.9,-4.8 15.4,-5.5 19.4,-0.6l7.2,8.8Z" style="fill:#fff;fill-rule:nonzero;"/></g><g><path d="M385.3,226.026l0,22.538l-95.3,-93.664c5.9,-4.9 8.4,-14.2 4.4,-19l-3.483,-4.257l94.383,94.383Z" style="fill:#af411e;"/><path d="M385.3,252.9l0,103.1c0,16.1 -13.1,29.2 -29.3,29.2l-226.2,0l-71.6,-71.6l8.9,7.8c4.3,4.6 14.7,2.3 20.3,-3l39.2,-32.3l-38.554,-0.354l-7.246,-7.246l54.5,0.5l10.7,-8.8l-40.875,-0.375l-6.925,-6.925l54.5,0.5l88.2,-72.5l-22.3,-27.1l41.683,41.683c-2.118,3.82 -1.646,8.947 1.417,12.717l14.5,17.7c0.903,1.106 1.954,2.009 3.092,2.701c3.901,2.376 8.824,2.286 12.308,-0.501l32.6,-26.8c3.676,-2.859 4.616,-8.053 2.657,-12.53c-0.439,-1.004 -1.024,-1.972 -1.757,-2.87l-14.5,-17.7l74.7,74.7Z" style="fill:#af411e;"/><path d="M250.5,122.413l51.432,51.432c-2.407,-0.094 -4.792,0.603 -6.732,2.155l-36.8,-44.8c-2.636,-3.204 -5.272,-6.126 -7.9,-8.787Z" style="fill:#af411e;"/><path d="M221.785,153.285l-50.785,-50.785c31.475,14.262 42.44,30.556 50.785,50.785Z" style="fill:#af411e;"/></g></g></g><defs><linearGradient id="_Linear1" x1="0" y1="0" x2="1" y2="0" gradientUnits="userSpaceOnUse" gradientTransform="matrix(-3.86028e-14,240.049,-240.049,-3.86028e-14,192.65,2.84217e-14)"><stop offset="0" style="stop-color:#f7e37f;stop-opacity:1"/><stop offset="1" style="stop-color:#e86e11;stop-opacity:1"/></linearGradient></defs></svg>
