<?xml version="1.0" encoding="UTF-8" standalone="no"?>
<!DOCTYPE svg PUBLIC "-//W3C//DTD SVG 1.1//EN" "http://www.w3.org/Graphics/SVG/1.1/DTD/svg11.dtd">
<svg width="100%" height="100%" viewBox="0 0 460 170" version="1.1" xmlns="http://www.w3.org/2000/svg" xmlns:xlink="http://www.w3.org/1999/xlink" xml:space="preserve" xmlns:serif="http://www.serif.com/" style="fill-rule:evenodd;clip-rule:evenodd;stroke-linejoin:round;stroke-miterlimit:2;">
    <g id="Name">
        <path d="M452.713,69.529l7.287,-0.448l0,30.773c0,3.55 -1,6.269 -2.999,8.156c-1.999,1.887 -4.961,2.831 -8.884,2.831c-3.027,-0 -5.681,-0.598 -7.96,-1.794c-1.196,-0.598 -2.149,-1.495 -2.859,-2.69c-0.71,-1.196 -1.065,-2.616 -1.065,-4.261l6.783,-0.336c-0,1.046 0.373,1.794 1.121,2.242c0.747,0.449 2.027,0.673 3.839,0.673c1.813,-0 3.046,-0.449 3.7,-1.345c0.654,-0.897 0.981,-2.187 0.981,-3.868l0.28,-4.821l-7.847,4.204c-4.298,0 -7.194,-1.457 -8.689,-4.372c-1.345,-2.578 -2.018,-5.736 -2.018,-9.473c0,-4.447 0.337,-7.586 1.009,-9.417c0.71,-2.018 1.719,-3.475 3.027,-4.372c1.682,-1.121 3.887,-1.682 6.615,-1.682l7.679,0Zm0,18.778l0,-12.22l-5.549,0c-2.093,0 -3.532,0.71 -4.316,2.13c-0.785,1.421 -1.178,3.401 -1.178,5.942c0,2.541 0.402,4.344 1.206,5.409c0.803,1.065 2.232,1.598 4.288,1.598l5.549,-2.859Z" style="fill-rule:nonzero;"/>
        <path d="M428.834,101.312l-5.437,-0l-1.682,-3.812l-8.968,4.148c-2.504,-0 -4.681,-0.925 -6.531,-2.775c-1.849,-1.849 -2.774,-4.549 -2.774,-8.099l-0,-21.469l7.287,-0l-0,19.899c-0,3.55 1.42,5.325 4.26,5.325l6.558,-3.531l0,-21.693l7.287,-0l0,32.007Z" style="fill-rule:nonzero;"/>
        <path d="M398.173,87.018l-18.666,-0c-0,2.915 0.457,5.045 1.373,6.39c0.916,1.345 2.756,2.018 5.521,2.018c1.794,0 3.121,-0.57 3.98,-1.71c0.86,-1.139 1.289,-2.232 1.289,-3.279l6.559,0c-0,3.999 -1.075,6.932 -3.223,8.801c-2.149,1.868 -4.989,2.802 -8.521,2.802c-3.531,0 -6.268,-0.504 -8.211,-1.513c-3.999,-2.055 -5.998,-7.511 -5.998,-16.368c-0,-5.269 1.14,-9.127 3.419,-11.575c2.28,-2.448 5.755,-3.671 10.426,-3.671c8.109,-0 12.164,4.503 12.164,13.509c-0,0.971 -0.038,2.503 -0.112,4.596Zm-18.498,-4.989l11.995,0c0,-2.466 -0.467,-4.26 -1.401,-5.381c-0.934,-1.121 -2.364,-1.682 -4.288,-1.682c-1.925,0 -3.457,0.57 -4.596,1.71c-1.14,1.14 -1.71,2.924 -1.71,5.353Z" style="fill-rule:nonzero;"/>
        <path d="M367.623,101.312l-17.432,-0c-1.906,-0 -3.373,-0.402 -4.401,-1.205c-1.027,-0.804 -1.541,-1.934 -1.541,-3.392c-0,-1.457 0.616,-2.989 1.85,-4.596l13.34,-16.536l-13.34,-0l-0,-6.278l22.085,-0l-0,5.549l-15.919,20.18l15.358,-0l0,6.278Z" style="fill-rule:nonzero;"/>
        <path d="M343.576,101.312l-8.744,-0l-8.408,-11.323l-3.195,4.54l-0,6.783l-7.287,-0l-0,-42.153l7.287,0l-0,26.626l10.201,-15.191l8.24,0l-10.482,14.35l12.388,16.368Z" style="fill-rule:nonzero;"/>
        <path d="M311.177,69.417l-2.018,7.175c-0.56,-0.224 -1.196,-0.336 -1.906,-0.336c-1.868,-0 -4.166,0.803 -6.894,2.41l-0,22.646l-7.287,-0l-0,-32.007l5.437,-0l1.682,2.803l7.735,-3.195c0.374,-0.038 0.878,-0.056 1.513,-0.056c0.636,-0 1.215,0.186 1.738,0.56Z" style="fill-rule:nonzero;"/>
        <path d="M287.466,87.018l-18.666,-0c0,2.915 0.458,5.045 1.374,6.39c0.915,1.345 2.756,2.018 5.521,2.018c1.794,0 3.12,-0.57 3.98,-1.71c0.859,-1.139 1.289,-2.232 1.289,-3.279l6.558,0c0,3.999 -1.074,6.932 -3.223,8.801c-2.148,1.868 -4.988,2.802 -8.52,2.802c-3.531,0 -6.269,-0.504 -8.212,-1.513c-3.998,-2.055 -5.997,-7.511 -5.997,-16.368c-0,-5.269 1.139,-9.127 3.419,-11.575c2.279,-2.448 5.755,-3.671 10.426,-3.671c8.109,-0 12.163,4.503 12.163,13.509c0,0.971 -0.037,2.503 -0.112,4.596Zm-18.497,-4.989l11.995,0c0,-2.466 -0.467,-4.26 -1.401,-5.381c-0.934,-1.121 -2.364,-1.682 -4.288,-1.682c-1.925,0 -3.457,0.57 -4.597,1.71c-1.14,1.14 -1.709,2.924 -1.709,5.353Z" style="fill-rule:nonzero;"/>
        <path d="M259.047,61.401l-10.706,39.911l-6.502,-0l-7.343,-24.216l-7.344,24.216l-6.502,-0l-10.65,-39.911l8.128,0l6.166,25.169l6.11,-20.796c0.672,-3.102 2.092,-4.653 4.26,-4.653c1.083,0 1.906,0.402 2.466,1.205c0.561,0.804 1.065,1.953 1.513,3.448l6.054,20.796l6.222,-25.169l8.128,0Z" style="fill-rule:nonzero;"/>
    </g>
    <g id="Icon">
        <path id="Box" d="M170,17l0,136c0,9.383 -7.617,17 -17,17l-136,0c-9.383,0 -17,-7.617 -17,-17l0,-136c0,-9.383 7.617,-17 17,-17l136,0c9.383,0 17,7.617 17,17Z" style="fill:url(#_Linear1);"/>
        <path id="Shadow" d="M170,99.966l0,10.948l-42.078,-42.078c2.613,-2.177 3.67,-6.221 1.929,-8.336l-3.173,-3.856l43.322,43.322Zm0,12.13l0,40.904c0,9.383 -7.617,17 -17,17l-94.793,0l-31.68,-31.68l3.919,3.421c1.866,1.991 6.407,0.995 8.895,-1.306l17.045,-14.183l-16.803,-0.132l-3.228,-3.227l23.887,0.249l4.666,-3.857l-17.853,-0.187l-3.048,-3.048l23.824,0.249l38.63,-31.725l-9.766,-11.881l18.236,18.236c-0.936,1.669 -0.762,3.919 0.612,5.589l6.345,7.713c0.225,0.272 0.471,0.517 0.733,0.733c1.776,1.46 4.305,1.609 5.985,0.2l14.246,-11.695c1.642,-1.194 2.05,-3.424 1.255,-5.351c-0.198,-0.482 -0.472,-0.944 -0.82,-1.367l-6.345,-7.713l33.058,33.058Zm-59.33,-57.416l22.446,22.447c-1.042,-0.029 -2.069,0.287 -2.892,0.978l-16.111,-19.595c-1.149,-1.396 -2.298,-2.669 -3.443,-3.83Zm-12.593,13.485l-22.221,-22.221c13.777,6.246 18.574,13.396 22.221,22.221Z" style="fill:#af411e;"/>
        <g id="Icon1" serif:id="Icon">
            <path d="M39.341,140.435l17.045,-14.183l-23.825,-0.187l-4.666,3.857c-2.426,2.302 -3.234,6.407 -1.368,8.398l3.919,3.421c1.866,1.991 6.407,0.995 8.895,-1.306Z" style="fill:#fff;fill-rule:nonzero;"/>
            <path d="M64.908,119.285l-23.825,-0.249l-4.728,3.857l23.887,0.249l4.666,-3.857Z" style="fill:#fff;fill-rule:nonzero;"/>
            <path d="M96.695,72.693l-52.688,43.357l23.824,0.249l38.63,-31.725l-9.766,-11.881Z" style="fill:#fff;fill-rule:nonzero;"/>
            <path d="M143.287,86.751l-6.345,-7.713c-1.742,-2.115 -4.79,-2.551 -6.718,-0.933l-16.111,-19.595c-19.098,-23.203 -38.257,-12.566 -38.257,-12.566c13.996,6.345 18.724,13.623 22.394,22.643l1.742,1.866l15.924,19.284c-1.928,1.617 -2.115,4.666 -0.373,6.781l6.345,7.713c1.742,2.115 4.79,2.55 6.718,0.933l14.246,-11.695c2.052,-1.493 2.177,-4.603 0.435,-6.718Z" style="fill:#fff;fill-rule:nonzero;"/>
            <path d="M129.851,60.5l-3.173,-3.856c-1.742,-2.115 -5.909,-1.867 -8.46,0.311l9.704,11.881c2.613,-2.177 3.67,-6.221 1.929,-8.336Z" style="fill:#fff;fill-rule:nonzero;"/>
        </g>
    </g>
    <defs>
        <linearGradient id="_Linear1" x1="0" y1="0" x2="1" y2="0" gradientUnits="userSpaceOnUse" gradientTransform="matrix(8.74456e-15,142.809,-142.809,8.74456e-15,90.9806,0)"><stop offset="0" style="stop-color:#f7e37f;stop-opacity:1"/><stop offset="1" style="stop-color:#e86e11;stop-opacity:1"/></linearGradient>
    </defs>
</svg>
