<?xml version="1.0" encoding="UTF-8" standalone="no"?>
<!DOCTYPE svg PUBLIC "-//W3C//DTD SVG 1.1//EN" "http://www.w3.org/Graphics/SVG/1.1/DTD/svg11.dtd">
<svg width="100%" height="100%" viewBox="0 0 250 342" version="1.1" xmlns="http://www.w3.org/2000/svg" xmlns:xlink="http://www.w3.org/1999/xlink" xml:space="preserve" xmlns:serif="http://www.serif.com/" style="fill-rule:evenodd;clip-rule:evenodd;stroke-linejoin:round;stroke-miterlimit:2;">
    <g id="Name">
        <path d="M242.713,300.37l7.287,-0.448l0,30.773c0,3.55 -1,6.269 -2.999,8.156c-1.999,1.887 -4.961,2.831 -8.884,2.831c-3.027,-0 -5.681,-0.598 -7.96,-1.794c-1.196,-0.598 -2.149,-1.495 -2.859,-2.691c-0.71,-1.196 -1.065,-2.616 -1.065,-4.26l6.783,-0.336c-0,1.046 0.373,1.794 1.121,2.242c0.747,0.448 2.027,0.673 3.839,0.673c1.813,-0 3.046,-0.449 3.7,-1.346c0.654,-0.896 0.981,-2.186 0.981,-3.867l0.28,-4.821l-7.847,4.204c-4.298,0 -7.194,-1.457 -8.689,-4.372c-1.345,-2.579 -2.018,-5.736 -2.018,-9.473c0,-4.447 0.337,-7.586 1.009,-9.417c0.71,-2.018 1.719,-3.476 3.027,-4.372c1.682,-1.122 3.887,-1.682 6.615,-1.682l7.679,-0Zm0,18.778l0,-12.22l-5.549,0c-2.093,0 -3.532,0.71 -4.316,2.13c-0.785,1.42 -1.178,3.401 -1.178,5.942c0,2.541 0.402,4.344 1.206,5.409c0.803,1.065 2.232,1.598 4.288,1.598l5.549,-2.859Z" style="fill-rule:nonzero;"/>
        <path d="M218.834,332.152l-5.437,0l-1.682,-3.811l-8.968,4.148c-2.504,-0 -4.681,-0.925 -6.531,-2.775c-1.849,-1.85 -2.774,-4.55 -2.774,-8.1l-0,-21.468l7.287,-0l-0,19.899c-0,3.55 1.42,5.325 4.26,5.325l6.558,-3.531l0,-21.693l7.287,-0l0,32.006Z" style="fill-rule:nonzero;"/>
        <path d="M188.173,317.859l-18.666,-0c-0,2.915 0.457,5.045 1.373,6.39c0.916,1.345 2.756,2.018 5.521,2.018c1.794,-0 3.121,-0.57 3.98,-1.71c0.86,-1.14 1.289,-2.233 1.289,-3.279l6.559,0c-0,3.999 -1.075,6.932 -3.223,8.8c-2.149,1.869 -4.989,2.803 -8.521,2.803c-3.531,0 -6.268,-0.504 -8.211,-1.513c-3.999,-2.056 -5.998,-7.511 -5.998,-16.368c-0,-5.269 1.14,-9.127 3.419,-11.575c2.28,-2.448 5.755,-3.672 10.426,-3.672c8.109,0 12.164,4.503 12.164,13.509c-0,0.972 -0.038,2.504 -0.112,4.597Zm-18.498,-4.989l11.995,-0c0,-2.466 -0.467,-4.26 -1.401,-5.381c-0.934,-1.121 -2.364,-1.682 -4.288,-1.682c-1.925,0 -3.457,0.57 -4.596,1.71c-1.14,1.14 -1.71,2.924 -1.71,5.353Z" style="fill-rule:nonzero;"/>
        <path d="M157.623,332.152l-17.432,0c-1.906,0 -3.373,-0.401 -4.401,-1.205c-1.027,-0.803 -1.541,-1.934 -1.541,-3.391c-0,-1.457 0.616,-2.989 1.85,-4.596l13.34,-16.536l-13.34,-0l-0,-6.278l22.085,-0l-0,5.549l-15.919,20.179l15.358,0l0,6.278Z" style="fill-rule:nonzero;"/>
        <path d="M133.576,332.152l-8.744,0l-8.408,-11.322l-3.195,4.54l-0,6.782l-7.287,0l-0,-42.152l7.287,-0l-0,26.626l10.201,-15.191l8.24,-0l-10.482,14.35l12.388,16.367Z" style="fill-rule:nonzero;"/>
        <path d="M101.177,300.258l-2.018,7.175c-0.56,-0.224 -1.196,-0.337 -1.906,-0.337c-1.868,0 -4.166,0.804 -6.894,2.411l-0,22.645l-7.287,0l-0,-32.006l5.437,-0l1.682,2.802l7.735,-3.195c0.374,-0.037 0.878,-0.056 1.513,-0.056c0.636,0 1.215,0.187 1.738,0.561Z" style="fill-rule:nonzero;"/>
        <path d="M77.466,317.859l-18.666,-0c0,2.915 0.458,5.045 1.374,6.39c0.915,1.345 2.756,2.018 5.521,2.018c1.794,-0 3.12,-0.57 3.98,-1.71c0.859,-1.14 1.289,-2.233 1.289,-3.279l6.558,0c0,3.999 -1.074,6.932 -3.223,8.8c-2.148,1.869 -4.988,2.803 -8.52,2.803c-3.531,0 -6.269,-0.504 -8.212,-1.513c-3.998,-2.056 -5.997,-7.511 -5.997,-16.368c-0,-5.269 1.139,-9.127 3.419,-11.575c2.279,-2.448 5.755,-3.672 10.426,-3.672c8.109,0 12.163,4.503 12.163,13.509c0,0.972 -0.037,2.504 -0.112,4.597Zm-18.497,-4.989l11.995,-0c0,-2.466 -0.467,-4.26 -1.401,-5.381c-0.934,-1.121 -2.364,-1.682 -4.288,-1.682c-1.925,0 -3.457,0.57 -4.597,1.71c-1.14,1.14 -1.709,2.924 -1.709,5.353Z" style="fill-rule:nonzero;"/>
        <path d="M49.047,292.242l-10.706,39.91l-6.502,0l-7.343,-24.215l-7.344,24.215l-6.502,0l-10.65,-39.91l8.128,0l6.166,25.168l6.11,-20.796c0.672,-3.101 2.092,-4.652 4.26,-4.652c1.083,-0 1.906,0.402 2.466,1.205c0.561,0.803 1.065,1.953 1.513,3.447l6.054,20.796l6.222,-25.168l8.128,0Z" style="fill-rule:nonzero;"/>
    </g>
    <g id="Icon">
        <path id="Box" d="M250,25l0,200c0,13.798 -11.202,25 -25,25l-200,0c-13.798,0 -25,-11.202 -25,-25l0,-200c0,-13.798 11.202,-25 25,-25l200,0c13.798,0 25,11.202 25,25Z" style="fill:url(#_Linear1);"/>
        <path id="Shadow" d="M250,147.008l0,16.1l-61.879,-61.879c3.842,-3.201 5.397,-9.148 2.836,-12.258l-4.666,-5.672l63.709,63.709Zm-0,17.839l-0,60.153c-0,13.798 -11.202,25 -25,25l-139.401,-0l-46.589,-46.589l5.763,5.032c2.745,2.927 9.423,1.463 13.082,-1.921l25.065,-20.857l-24.71,-0.194l-4.746,-4.746l35.128,0.366l6.861,-5.672l-26.255,-0.274l-4.482,-4.483l35.036,0.366l56.809,-46.654l-14.363,-17.473l26.818,26.818c-1.376,2.455 -1.121,5.764 0.901,8.219l9.33,11.343c0.33,0.401 0.692,0.76 1.078,1.078c2.611,2.147 6.332,2.366 8.802,0.294l20.949,-17.198c2.415,-1.757 3.015,-5.036 1.846,-7.87c-0.292,-0.708 -0.694,-1.388 -1.206,-2.01l-9.331,-11.343l48.615,48.615Zm-87.25,-84.435l33.009,33.009c-1.533,-0.042 -3.043,0.424 -4.253,1.439l-23.693,-28.816c-1.69,-2.053 -3.379,-3.925 -5.063,-5.632Zm-18.519,19.831l-32.678,-32.678c20.261,9.185 27.314,19.7 32.678,32.678Z" style="fill:#af411e;"/>
        <g id="Icon1" serif:id="Icon">
            <path d="M57.855,206.522l25.065,-20.857l-35.037,-0.275l-6.86,5.672c-3.568,3.385 -4.757,9.422 -2.013,12.349l5.763,5.032c2.745,2.927 9.423,1.463 13.082,-1.921Z" style="fill:#fff;fill-rule:nonzero;"/>
            <path d="M95.453,175.419l-35.037,-0.366l-6.952,5.672l35.128,0.366l6.861,-5.672Z" style="fill:#fff;fill-rule:nonzero;"/>
            <path d="M142.198,106.901l-77.482,63.761l35.036,0.366l56.809,-46.654l-14.363,-17.473Z" style="fill:#fff;fill-rule:nonzero;"/>
            <path d="M210.716,127.575l-9.331,-11.343c-2.561,-3.11 -7.044,-3.751 -9.879,-1.372l-23.693,-28.816c-28.085,-34.122 -56.26,-18.479 -56.26,-18.479c20.583,9.331 27.535,20.034 32.932,33.298l2.562,2.745l23.418,28.358c-2.835,2.379 -3.11,6.861 -0.548,9.972l9.33,11.343c2.562,3.11 7.044,3.751 9.88,1.372l20.949,-17.198c3.019,-2.195 3.202,-6.769 0.64,-9.88Z" style="fill:#fff;fill-rule:nonzero;"/>
            <path d="M190.957,88.971l-4.666,-5.672c-2.561,-3.11 -8.69,-2.744 -12.441,0.458l14.271,17.472c3.842,-3.201 5.397,-9.148 2.836,-12.258Z" style="fill:#fff;fill-rule:nonzero;"/>
        </g>
    </g>
    <defs>
        <linearGradient id="_Linear1" x1="0" y1="0" x2="1" y2="0" gradientUnits="userSpaceOnUse" gradientTransform="matrix(1.28596e-14,210.014,-210.014,1.28596e-14,133.795,0)"><stop offset="0" style="stop-color:#f7e37f;stop-opacity:1"/><stop offset="1" style="stop-color:#e86e11;stop-opacity:1"/></linearGradient>
    </defs>
</svg>
