<?xml version="1.0" encoding="UTF-8" standalone="no"?>
<!DOCTYPE svg PUBLIC "-//W3C//DTD SVG 1.1//EN" "http://www.w3.org/Graphics/SVG/1.1/DTD/svg11.dtd">
<svg width="100%" height="100%" viewBox="0 0 1019 300" version="1.1" xmlns="http://www.w3.org/2000/svg" xmlns:xlink="http://www.w3.org/1999/xlink" xml:space="preserve" xmlns:serif="http://www.serif.com/" style="fill-rule:evenodd;clip-rule:evenodd;stroke-linejoin:round;stroke-miterlimit:2;">
    <g>
        <g>
            <path id="Box" d="M300,30l0,240c0,16.557 -13.443,30 -30,30l-240,-0c-16.557,-0 -30,-13.443 -30,-30l0,-240c0,-16.557 13.443,-30 30,-30l240,0c16.557,0 30,13.443 30,30Z" style="fill:url(#_Linear1);"/>
            <path id="Shadow" d="M300,181.723l0,16.56l-85.076,-85.076c3.952,-3.293 5.552,-9.409 2.917,-12.608l-4.799,-5.834l86.958,86.958Zm0,18.324l0,69.953c0,16.557 -13.443,30 -30,30l-126.003,-0l-76.322,-76.322c2.932,2.749 9.581,1.234 13.261,-2.17l25.782,-21.453l-25.416,-0.199l-4.882,-4.882l36.131,0.376l7.057,-5.833l-27.004,-0.282l-4.611,-4.611l36.038,0.376l58.431,-47.987l-14.772,-17.972l27.584,27.584c-0.403,0.718 -0.67,1.508 -0.798,2.329c-0.321,2.062 0.236,4.318 1.724,6.125l9.597,11.667c2.635,3.199 7.245,3.858 10.162,1.411l21.548,-17.689c3.105,-2.258 3.293,-6.963 0.658,-10.162l-9.597,-11.667c-0.042,-0.051 -0.084,-0.101 -0.126,-0.15l71.558,71.558Zm-108.385,-105.282l30.98,30.98c-1.512,-0.002 -2.993,0.479 -4.189,1.482l-24.37,-29.639c-0.807,-0.98 -1.614,-1.921 -2.421,-2.823Zm-55.446,-16.184c20.84,9.448 28.095,20.263 33.611,33.612l-33.611,-33.612Z" style="fill:#af411e;"/>
            <g id="Icon">
                <path d="M80.936,221.508l25.782,-21.453l-36.038,-0.282l-7.057,5.833c-3.669,3.482 -4.893,9.692 -2.07,12.703l5.928,5.175c2.823,3.011 9.692,1.506 13.455,-1.976Z" style="fill:#fff;fill-rule:nonzero;"/>
                <path d="M119.608,189.517l-36.037,-0.377l-7.151,5.834l36.131,0.376l7.057,-5.833Z" style="fill:#fff;fill-rule:nonzero;"/>
                <path d="M167.69,119.041l-79.697,65.583l36.038,0.376l58.431,-47.987l-14.772,-17.972Z" style="fill:#fff;fill-rule:nonzero;"/>
                <path d="M238.165,140.306l-9.597,-11.667c-2.635,-3.2 -7.245,-3.858 -10.162,-1.412l-24.37,-29.639c-28.887,-35.097 -57.867,-19.007 -57.867,-19.007c21.171,9.598 28.322,20.606 33.873,34.25l2.635,2.823l24.087,29.168c-2.916,2.447 -3.199,7.057 -0.564,10.257l9.597,11.667c2.635,3.199 7.245,3.858 10.162,1.411l21.548,-17.689c3.105,-2.258 3.293,-6.963 0.658,-10.162Z" style="fill:#fff;fill-rule:nonzero;"/>
                <path d="M217.841,100.599l-4.799,-5.834c-2.634,-3.199 -8.938,-2.823 -12.796,0.471l14.678,17.971c3.952,-3.293 5.552,-9.409 2.917,-12.608Z" style="fill:#fff;fill-rule:nonzero;"/>
            </g>
        </g>
        <path d="M481.25,86.85l-28.65,106.8l-17.4,-0l-19.65,-64.8l-19.65,64.8l-17.4,-0l-28.5,-106.8l21.75,-0l16.5,67.35l16.35,-55.65c1.8,-8.3 5.6,-12.45 11.4,-12.45c2.9,-0 5.1,1.075 6.6,3.225c1.5,2.15 2.85,5.225 4.05,9.225l16.2,55.65l16.65,-67.35l21.75,-0Z" style="fill-rule:nonzero;"/>
        <path d="M557.3,155.4l-49.95,-0c-0,7.8 1.225,13.5 3.675,17.1c2.45,3.6 7.375,5.4 14.775,5.4c4.8,-0 8.35,-1.525 10.65,-4.575c2.3,-3.05 3.45,-5.975 3.45,-8.775l17.55,-0c-0,10.7 -2.875,18.55 -8.625,23.55c-5.75,5 -13.35,7.5 -22.8,7.5c-9.45,-0 -16.775,-1.35 -21.975,-4.05c-10.7,-5.5 -16.05,-20.1 -16.05,-43.8c-0,-14.1 3.05,-24.425 9.15,-30.975c6.1,-6.55 15.4,-9.825 27.9,-9.825c21.7,-0 32.55,12.05 32.55,36.15c-0,2.6 -0.1,6.7 -0.3,12.3Zm-49.5,-13.35l32.1,-0c-0,-6.6 -1.25,-11.4 -3.75,-14.4c-2.5,-3 -6.325,-4.5 -11.475,-4.5c-5.15,-0 -9.25,1.525 -12.3,4.575c-3.05,3.05 -4.575,7.825 -4.575,14.325Z" style="fill-rule:nonzero;"/>
        <path d="M620.75,108.3l-5.4,19.2c-1.5,-0.6 -3.2,-0.9 -5.1,-0.9c-5,-0 -11.15,2.15 -18.45,6.45l-0,60.6l-19.5,-0l-0,-85.65l14.55,-0l4.5,7.5l20.7,-8.55c1,-0.1 2.35,-0.15 4.05,-0.15c1.7,-0 3.25,0.5 4.65,1.5Z" style="fill-rule:nonzero;"/>
        <path d="M707.45,193.65l-23.4,-0l-22.5,-30.3l-8.55,12.15l-0,18.15l-19.5,-0l-0,-112.8l19.5,-0l-0,71.25l27.3,-40.65l22.05,-0l-28.05,38.4l33.15,43.8Z" style="fill-rule:nonzero;"/>
        <path d="M771.8,193.65l-46.65,-0c-5.1,-0 -9.025,-1.075 -11.775,-3.225c-2.75,-2.15 -4.125,-5.175 -4.125,-9.075c-0,-3.9 1.65,-8 4.95,-12.3l35.7,-44.25l-35.7,-0l-0,-16.8l59.1,-0l-0,14.85l-42.6,54l41.1,-0l-0,16.8Z" style="fill-rule:nonzero;"/>
        <path d="M853.55,155.4l-49.95,-0c-0,7.8 1.225,13.5 3.675,17.1c2.45,3.6 7.375,5.4 14.775,5.4c4.8,-0 8.35,-1.525 10.65,-4.575c2.3,-3.05 3.45,-5.975 3.45,-8.775l17.55,-0c-0,10.7 -2.875,18.55 -8.625,23.55c-5.75,5 -13.35,7.5 -22.8,7.5c-9.45,-0 -16.775,-1.35 -21.975,-4.05c-10.7,-5.5 -16.05,-20.1 -16.05,-43.8c-0,-14.1 3.05,-24.425 9.15,-30.975c6.1,-6.55 15.4,-9.825 27.9,-9.825c21.7,-0 32.55,12.05 32.55,36.15c-0,2.6 -0.1,6.7 -0.3,12.3Zm-49.5,-13.35l32.1,-0c-0,-6.6 -1.25,-11.4 -3.75,-14.4c-2.5,-3 -6.325,-4.5 -11.475,-4.5c-5.15,-0 -9.25,1.525 -12.3,4.575c-3.05,3.05 -4.575,7.825 -4.575,14.325Z" style="fill-rule:nonzero;"/>
        <path d="M935.6,193.65l-14.55,-0l-4.5,-10.2l-24,11.1c-6.7,-0 -12.525,-2.475 -17.475,-7.425c-4.95,-4.95 -7.425,-12.175 -7.425,-21.675l-0,-57.45l19.5,-0l-0,53.25c-0,9.5 3.8,14.25 11.4,14.25l17.55,-9.45l-0,-58.05l19.5,-0l-0,85.65Z" style="fill-rule:nonzero;"/>
        <path d="M999.5,108.6l19.5,-1.2l-0,82.35c-0,9.5 -2.675,16.775 -8.025,21.825c-5.35,5.05 -13.275,7.575 -23.775,7.575c-8.1,-0 -15.2,-1.6 -21.3,-4.8c-3.2,-1.6 -5.75,-4 -7.65,-7.2c-1.9,-3.2 -2.85,-7 -2.85,-11.4l18.15,-0.9c-0,2.8 1,4.8 3,6c2,1.2 5.425,1.8 10.275,1.8c4.85,-0 8.15,-1.2 9.9,-3.6c1.75,-2.4 2.625,-5.85 2.625,-10.35l0.75,-12.9l-21,11.25c-11.5,-0 -19.25,-3.9 -23.25,-11.7c-3.6,-6.9 -5.4,-15.35 -5.4,-25.35c-0,-11.9 0.9,-20.3 2.7,-25.2c1.9,-5.4 4.6,-9.3 8.1,-11.7c4.5,-3 10.4,-4.5 17.7,-4.5l20.55,-0Zm-0,50.25l-0,-32.7l-14.85,-0c-5.6,-0 -9.45,1.9 -11.55,5.7c-2.1,3.8 -3.15,9.1 -3.15,15.9c-0,6.8 1.075,11.625 3.225,14.475c2.15,2.85 5.975,4.275 11.475,4.275l14.85,-7.65Z" style="fill-rule:nonzero;"/>
    </g>
    <defs>
        <linearGradient id="_Linear1" x1="0" y1="0" x2="1" y2="0" gradientUnits="userSpaceOnUse" gradientTransform="matrix(1.54316e-14,252.017,-252.017,1.54316e-14,160.554,0)"><stop offset="0" style="stop-color:#f7e37f;stop-opacity:1"/><stop offset="1" style="stop-color:#e86e11;stop-opacity:1"/></linearGradient>
    </defs>
</svg>
