<?xml version="1.0" encoding="UTF-8" standalone="no"?>
<!DOCTYPE svg PUBLIC "-//W3C//DTD SVG 1.1//EN" "http://www.w3.org/Graphics/SVG/1.1/DTD/svg11.dtd">
<svg width="100%" height="100%" viewBox="0 0 500 500" version="1.1" xmlns="http://www.w3.org/2000/svg" xmlns:xlink="http://www.w3.org/1999/xlink" xml:space="preserve" xmlns:serif="http://www.serif.com/" style="fill-rule:evenodd;clip-rule:evenodd;stroke-linejoin:round;stroke-miterlimit:2;">
    <rect id="Logo" x="0" y="0" width="500" height="500" style="fill:none;"/>
    <g>
        <path id="Box" d="M500,50l0,400c0,27.596 -22.404,50 -50,50l-400,0c-27.596,0 -50,-22.404 -50,-50l0,-400c0,-27.596 22.404,-50 50,-50l400,0c27.596,0 50,22.404 50,50Z" style="fill:url(#_Linear1);"/>
        <path id="Shadow" d="M500,302.871l0,27.601l-141.793,-141.793c6.587,-5.489 9.253,-15.682 4.862,-21.014l-7.998,-9.723l144.929,144.929Zm0,30.541l0,116.588c0,27.596 -22.404,50 -50,50l-210.005,0l-127.204,-127.204c4.887,4.583 15.969,2.058 22.103,-3.616l42.969,-35.755l-42.36,-0.332l-8.137,-8.136l60.22,0.627l11.761,-9.723l-45.007,-0.47l-7.685,-7.685l60.063,0.627l97.386,-79.978l-24.621,-29.953l45.973,45.973c-0.671,1.197 -1.116,2.514 -1.329,3.881c-0.536,3.438 0.394,7.198 2.873,10.208l15.996,19.446c4.391,5.332 12.075,6.43 16.936,2.352l35.912,-29.482c5.175,-3.764 5.489,-11.605 1.098,-16.937l-15.996,-19.445c-0.069,-0.085 -0.139,-0.168 -0.21,-0.25l119.264,119.264Zm-180.641,-175.47l51.633,51.633c-2.521,-0.003 -4.989,0.798 -6.982,2.47l-40.617,-49.398c-1.345,-1.634 -2.69,-3.202 -4.034,-4.705Zm-92.411,-26.973c34.733,15.745 46.825,33.77 56.019,56.019l-56.019,-56.019Z" style="fill:#af411e;"/>
        <g id="Icon">
            <path d="M134.894,369.18l42.969,-35.755l-60.063,-0.471l-11.761,9.723c-6.116,5.803 -8.155,16.153 -3.45,21.171l9.879,8.625c4.705,5.019 16.153,2.51 22.426,-3.293Z" style="fill:#fff;fill-rule:nonzero;"/>
            <path d="M199.347,315.861l-60.062,-0.627l-11.919,9.723l60.22,0.627l11.761,-9.723Z" style="fill:#fff;fill-rule:nonzero;"/>
            <path d="M279.483,198.402l-132.828,109.304l60.063,0.627l97.386,-79.978l-24.621,-29.953Z" style="fill:#fff;fill-rule:nonzero;"/>
            <path d="M396.942,233.843l-15.996,-19.445c-4.391,-5.332 -12.075,-6.43 -16.936,-2.353l-40.617,-49.398c-48.144,-58.495 -96.445,-31.678 -96.445,-31.678c35.285,15.995 47.203,34.343 56.455,57.083l4.391,4.704l40.147,48.615c-4.862,4.077 -5.332,11.761 -0.941,17.093l15.996,19.446c4.391,5.332 12.075,6.43 16.936,2.352l35.912,-29.482c5.175,-3.764 5.489,-11.605 1.098,-16.937Z" style="fill:#fff;fill-rule:nonzero;"/>
            <path d="M363.069,167.665l-7.998,-9.723c-4.391,-5.332 -14.898,-4.705 -21.328,0.784l24.464,29.953c6.587,-5.489 9.253,-15.682 4.862,-21.014Z" style="fill:#fff;fill-rule:nonzero;"/>
        </g>
    </g>
    <defs>
        <linearGradient id="_Linear1" x1="0" y1="0" x2="1" y2="0" gradientUnits="userSpaceOnUse" gradientTransform="matrix(2.57193e-14,420.028,-420.028,2.57193e-14,267.59,0)"><stop offset="0" style="stop-color:#f7e37f;stop-opacity:1"/><stop offset="1" style="stop-color:#e86e11;stop-opacity:1"/></linearGradient>
    </defs>
</svg>
