<?xml version="1.0" encoding="UTF-8" standalone="no"?><!DOCTYPE svg PUBLIC "-//W3C//DTD SVG 1.1//EN" "http://www.w3.org/Graphics/SVG/1.1/DTD/svg11.dtd"><svg width="100%" height="100%" viewBox="0 0 1000 1000" version="1.1" xmlns="http://www.w3.org/2000/svg" xmlns:xlink="http://www.w3.org/1999/xlink" xml:space="preserve" xmlns:serif="http://www.serif.com/" style="fill-rule:evenodd;clip-rule:evenodd;stroke-linejoin:round;stroke-miterlimit:2;"><g><path d="M20.532,808.758l39.333,-32.348l200.337,1.838l-144.096,118.732c-20.585,19.482 -58.814,27.937 -74.621,11.028l-32.715,-28.672c-15.807,-16.909 -9.19,-51.095 11.395,-70.578l0.367,0Z" style="fill:#f89e0c;fill-rule:nonzero;"/><path d="M331.514,719.801l-39.332,32.348l-200.337,-1.837l39.332,-32.348l200.337,1.837Z" style="fill:#f89e0c;fill-rule:nonzero;"/><path d="M598.385,328.685l81.973,99.617l-324.215,266.503l-200.337,-1.838l442.579,-364.282Z" style="fill:#f89e0c;fill-rule:nonzero;"/><path d="M989.869,446.682c14.703,18.012 13.233,43.743 -3.309,56.609l-119.834,98.514c-16.542,13.233 -41.905,9.925 -56.609,-8.087l-53.301,-65.064c-14.336,-17.644 -13.233,-43.375 3.309,-56.976l-148.507,-177.914c-30.878,-76.091 -70.577,-137.111 -188.206,-190.412c-0,0 161.004,-89.324 321.274,105.499l135.273,164.68c16.542,-13.233 41.905,-9.557 56.609,8.087l53.301,65.064Z" style="fill:#f89e0c;fill-rule:nonzero;"/><path d="M877.018,226.127c14.704,17.645 5.514,51.831 -16.174,69.843l-81.605,-99.985c21.688,-17.644 56.609,-20.218 71.313,-2.206l26.466,32.348Z" style="fill:#f89e0c;fill-rule:nonzero;"/></g></svg>
